<?xml version="1.0" encoding="utf-8"?>
<!-- Generator: Adobe Illustrator 23.0.0, SVG Export Plug-In . SVG Version: 6.00 Build 0)  -->
<svg version="1.1" id="图层_1" xmlns="http://www.w3.org/2000/svg" xmlns:xlink="http://www.w3.org/1999/xlink" x="0px" y="0px"
	 viewBox="0 0 1024 1024" style="enable-background:new 0 0 1024 1024;" xml:space="preserve">
<g>
	<path d="M478.6,934.02c-13.73-7.78-25.72-14.45-37.59-21.31c-100.93-58.28-201.76-116.73-302.89-174.65
		c-9.03-5.17-11.82-10.75-11.79-20.86c0.35-133.91,0.24-267.81,0.24-401.72c0-3.5,0-7,0-12.44c11.45,4.93,21.42,9.04,31.25,13.49
		c103.15,46.7,206.23,93.56,309.48,140.03c8.19,3.69,11.57,7.73,11.55,17.21c-0.35,148.15-0.25,296.3-0.25,444.45
		C478.6,922.73,478.6,927.25,478.6,934.02z"/>
	<path d="M544.66,934.85c0-6.85,0-10.68,0-14.51c0-148.54,0.09-297.08-0.2-445.62c-0.02-9.17,2.74-13.91,11.15-17.69
		c110.12-49.51,220.09-99.35,330.1-149.09c3.45-1.56,7-2.9,11.89-4.92c0,28.91,0.25,56.27-0.37,83.61
		c-0.07,2.89-4.69,6.65-8.05,8.36c-40.85,20.79-81.88,41.24-122.83,61.85c-38.71,19.48-77.44,38.94-115.96,58.8
		c-3.29,1.7-7.16,6.4-7.18,9.73c-0.4,82.97-0.31,165.95-0.31,251.2c85.05-45.97,168.79-91.25,254.11-137.37
		c0.28,5.44,0.62,9.15,0.63,12.86c0.04,22.09-0.47,44.19,0.23,66.25c0.3,9.38-2.63,14.5-10.91,19.24
		c-98.08,56.15-195.92,112.73-293.81,169.21C577.85,915.59,562.56,924.48,544.66,934.85z"/>
	<path d="M853.89,249.39c-24.15,11.01-46,21.03-67.9,30.95c-87.03,39.42-174.14,78.68-261.03,118.42
		c-9.29,4.25-16.73,4.09-25.94-0.11c-105.33-48.01-210.85-95.61-316.3-143.36c-3.46-1.56-6.73-3.54-12.26-6.48
		c5.83-2.62,9.74-4.53,13.77-6.15c33.93-13.64,67.93-27.1,101.77-40.93c6.73-2.75,12.4-2.71,19.13,0.48
		c65.48,31.08,131.17,61.7,196.6,92.87c7.54,3.59,13.39,3.5,20.83-0.04c65.44-31.15,131.02-62,196.73-92.57
		c4.62-2.15,11.39-3.25,15.89-1.52c37.12,14.24,73.95,29.26,110.84,44.09C847.95,245.82,849.68,247.05,853.89,249.39z"/>
	<path d="M897.68,466.38c0,31.3,0.14,61.5-0.23,91.7c-0.03,2.79-2.65,6.75-5.18,8.13c-59.23,32.23-118.6,64.18-177.97,96.15
		c-1.17,0.63-2.56,0.86-5.65,1.87c0-8.23,0-15.5,0-22.78c0-24.2-0.3-48.41,0.27-72.6c0.09-3.98,2.98-9.84,6.27-11.52
		c59.08-30.25,118.43-60,177.73-89.82C893.8,467.07,894.89,467.03,897.68,466.38z"/>
	<path d="M382.16,163.54c18.81-7.55,36.82-14.78,54.83-22c22.75-9.12,45.44-18.38,68.32-27.17c3.58-1.37,8.52-1.86,11.95-0.53
		c40.03,15.6,79.89,31.61,119.77,47.58c1.51,0.6,2.76,1.84,5.35,3.63c-27.11,12.8-53.07,25.07-79.04,37.31
		c-15.11,7.12-30.18,14.35-45.45,21.14c-2.92,1.3-7.26,2.12-9.9,0.89c-40.91-19.01-81.64-38.38-122.39-57.71
		C384.74,166.25,384.11,165.34,382.16,163.54z"/>
</g>
</svg>
