<?xml version="1.0" encoding="utf-8"?>
<!-- Generator: Adobe Illustrator 23.0.0, SVG Export Plug-In . SVG Version: 6.00 Build 0)  -->
<svg version="1.1" id="图层_1" xmlns="http://www.w3.org/2000/svg" xmlns:xlink="http://www.w3.org/1999/xlink" x="0px" y="0px"
	 viewBox="0 0 886.7 145.2" style="enable-background:new 0 0 886.7 145.2;fill:white" xml:space="preserve">
<path d="M31.1,87.1v-1.2c-0.4-0.8-0.2-7.6,0.6-20.4c0-2,0.4-5.8,1.2-11.4c0.4-2.8,0.6-6.4,0.6-10.8c0-6-2-9.2-6-9.6
	c2-2,4.4-3.8,7.2-5.4c1.2-0.8,3.4-2.8,6.6-6c1.2-2,1.8-3.8,1.8-5.4c0-3.6-1.8-6.2-5.4-7.8c-3.2-2-7-1.2-11.4,2.4
	c-2.4,0.4-6.4,4.8-12,13.2L7.2,35c-2.4,3.6-4.4,7.6-6,12L0,51.7c0,1.6,0.2,2.6,0.6,3l1.2,1.2L3,56.5c0.8,0.8,1.4,1,1.8,0.6
	c2-0.8,3.8-2.4,5.4-4.8L18,44l-0.6,1.2c-0.4,2.8-0.4,6.2,0,10.2c0.4,2.8,0.6,6,0.6,9.6c0,4.8,1.6,13.2,4.8,25.2
	c0.4,1.6,1.2,3,2.4,4.2c0.8,0.8,1.4,1.2,1.8,1.2c0.8,0,1.4-0.2,1.8-0.6l1.2-1.2L31.1,87.1z"/>
<path d="M87.4,117c-2.4-0.8-5.2-1.2-8.4-1.2c-2.8,0-6.6,0.4-11.4,1.2l-9,2.4c-3.6,1.6-6.4,2.4-8.4,2.4c-1.6,0-3.4-0.6-5.4-1.8
	c-2.4-1.2-3.6-2.6-3.6-4.2c0-1.6,0.8-3.8,2.4-6.6l2.4-6c1.2-3.2,1.2-5.8,0-7.8c-1.6-1.6-3.6-2.4-6-2.4c-3.6,0-6.4,1.8-8.4,5.4
	c-1.2,2.8-1.8,6.2-1.8,10.2v6c1.2,7.6,5.8,12.6,13.8,15l10.8,1.8l3.6-0.6h5.4c4.8,0,10.8-0.4,18-1.2L85,129c0.4,0,1.8-0.4,4.2-1.2
	c1.6-0.4,3-1.6,4.2-3.6c0.4-0.8,0-2.2-1.2-4.2C91.4,118.8,89.8,117.8,87.4,117z"/>
<path d="M24.5,98.5c-3.2-2-5.8-1.8-7.8,0.6l-4.2,3.6c-1.6,1.2-3,2.6-4.2,4.2L6,110.4c-1.2,1.6-1.8,3.2-1.8,4.8c0,2.8,1,4.8,3,6
	c1.2,1.2,3,1.8,5.4,1.8c1.6,0,3.2-0.4,4.8-1.2c4.4-4.4,6.8-7.2,7.2-8.4c1.6-2.8,2.4-6.4,2.4-10.8c0-1.2-0.2-2-0.6-2.4L24.5,98.5z"/>
<path d="M106.6,24.8h-2.4L97,26.6l-9,1.8l-9.6,1.2l0.6-1.2c1.6-2.8,2.4-5.4,2.4-7.8l-1.2-6c-0.8-3.2-2.8-4.8-6-4.8l-2.4,0.6
	c-0.8,0-1.4,0.2-1.8,0.6l-3,2.4c-1.2,1.2-2.4,3.4-3.6,6.6l-3,9c-3.2,7.2-4.8,15.6-4.8,25.1c0,4.4,1.4,6.6,4.2,6.6l3-1.2l1.8-3.6
	l0.6-1.2c1.2,2,2.8,3.6,4.8,4.8c0.8,0.4,4.8,4.2,12,11.4c-4,4.8-7.6,7.2-10.8,7.2c-1.6,0.4-3.6,0.4-6,0h-4.8c-1.6,0-2.6,0.2-3,0.6
	c-1.2,0.4-1.8,1.2-1.8,2.4c0,0.4,0.8,1.4,2.4,3c2.8,2,6.6,3,11.4,3c2.8,0,4.6-0.2,5.4-0.6c7.2-0.8,12.6-3,16.2-6.6
	c6,6,9.4,9.2,10.2,9.6c1.2,1.6,2.8,2.4,4.8,2.4c1.2,0,2.6-0.6,4.2-1.8c0.8-0.4,1.6-1.4,2.4-3c2-3.2,1.2-7-2.4-11.4
	c-2.8-2.8-5.8-5.4-9-7.8l1.2-1.2l3-7.2c1.2-3.2,1.8-6,1.8-8.4s-0.2-4-0.6-4.8c0-1.6-0.6-3-1.8-4.2l4.2-0.6l3-2.4l1.8-1.2l1.8-2.4
	c0.8-0.8,1.2-1.8,1.2-3s-0.6-2.4-1.8-3.6C113.3,26.2,110.5,24.8,106.6,24.8z M92.2,46.4c-1.2,2-2.8,6-4.8,12l-15-7.2l-4.8-0.6H67
	l4.8-8.4l1.8-4.2c5.6,2.8,12.2,4.2,19.8,4.2h1.8C94,43.4,93,44.8,92.2,46.4z"/>
<path d="M112,109.8c-1.2-1.6-4-4-8.4-7.2c-1.6-1.6-3.4-2.4-5.4-2.4c-2.4,0-3.6,1.2-3.6,3.6c0,0.8,0.2,1.4,0.6,1.8
	c0,0.8,0.6,2.8,1.8,6l4.2,9.6c1.6,2.8,3.8,4.2,6.6,4.2h1.8l3.6-1.2c1.6-0.4,2.8-2.4,3.6-6c0-1.6-0.6-3.2-1.8-4.8L112,109.8z"/>
<path d="M62.9,107.5c4,2,7.2,3,9.6,3H73c2.8,0,4.8-1,6-3c2-2,2-4.8,0-8.4c-2-2.4-5.6-4.6-10.8-6.6l-5.4-1.2c-1.2,0-2,0.2-2.4,0.6
	l-1.8,2.4l-1.2,3c0,0.8,0.2,1.4,0.6,1.8c0,1.2,0.2,2.2,0.6,3L62.9,107.5z"/>
<path d="M37.1,47.6L36.5,53l0.6,9.6c0,1.6,1.2,7.8,3.6,18.6c0.4,1.6,1.2,2.6,2.4,3l2.4,1.2c0.8,0,1.4-0.2,1.8-0.6
	c0.4,0,1-0.4,1.8-1.2c1.2-2,1.8-3.8,1.8-5.4l1.2-15c0-4,0.2-7,0.6-9c0.4-1.6,0.6-4,0.6-7.2c0-2.4-0.8-4.2-2.4-5.4
	c-2-1.2-3.8-1.8-5.4-1.8h-0.6C40.9,40.2,38.3,42.8,37.1,47.6z"/>
<path d="M159.8,45.8c-0.4-1.2-1-2.2-1.8-3c-1.2-0.8-2.2-0.8-3,0c-0.8,0.8-1.6,2.8-2.4,6L150.3,59c-1.2,4-1.8,7-1.8,9l-1.8,13.8v0.6
	c0,6.8,1.2,11.4,3.6,13.8c2.8,2.8,5.2,1.2,7.2-4.8c2.4-9.2,3.6-18,3.6-26.3c0-8.8-0.2-13.6-0.6-14.4C160.4,48.6,160.3,47,159.8,45.8
	z"/>
<path d="M172.4,11.1l-2.4,1.2c-3.6,1.6-5.4,12-5.4,31.1l0.6,26.9c0,3.2,0.4,10.8,1.2,22.7l2.4,25.2l1.8,7.2c0.4,1.6,1,2.4,1.8,2.4
	h1.2c0.8,0,1.4-0.2,1.8-0.6c0.4,0,0.8-1,1.2-3c0.4-0.4,0.6-2.4,0.6-6s0.2-6,0.6-7.2l0.6-38.9c0.4-7.6,0.6-23.1,0.6-46.7
	c0-4.8-0.6-8.4-1.8-10.8C175.2,12.3,173.6,11.1,172.4,11.1z"/>
<path d="M244.3,33.8l0.6,0.6c0.4,0.4,1.2,0.6,2.4,0.6c0.4,0.4,1.4,0.2,3-0.6l9.6-6c3.6-3.2,5.4-6.2,5.4-9c0-1.6-1.2-3.6-3.6-6
	c-2-1.6-4.6-2.4-7.8-2.4c-2,0-3.6,0.6-4.8,1.8l-1.8,3.6l-1.8,4.2l-3.6,7.8v1.2c0,1.2,0.2,2,0.6,2.4L244.3,33.8z"/>
<path d="M200,70.9c0-2-1-5.6-3-10.8c-0.4-0.8-2.4-4.6-6-11.4c-2.4-2.4-4.4-3.6-6-3.6l-2.4,1.2c-0.8,0.8-1.2,2.6-1.2,5.4V53l0.6,6
	c0.8,5.6,1.6,9.8,2.4,12.6c0.8,4.4,3.2,6.6,7.2,6.6C197.2,78.1,200,75.7,200,70.9z"/>
<path d="M271.8,115.8c-0.8-0.4-2.4-0.6-4.8-0.6l-7.2,1.2c-4.4,0.8-7.4,0.6-9-0.6c-1.6-0.4-2.8-2-3.6-4.8c-0.8-1.6-1.2-4.6-1.2-9
	c0-4,0.2-6.4,0.6-7.2c0-1.2,0.2-2.2,0.6-3c0-2-0.2-3.6-0.6-4.8c-0.8-1.6-1.6-2.6-2.4-3c-1.6-0.8-3-1.2-4.2-1.2
	c-1.6,0-2.8,0.6-3.6,1.8c-1.6,1.6-2.4,3.2-2.4,4.8l-1.2,4.2c-0.4,1.2-0.6,3.4-0.6,6.6c0,2.4,0.2,4,0.6,4.8c0,3.6,0.2,6,0.6,7.2
	c0,1.2,0.4,3.4,1.2,6.6c1.2,4,3.6,6.8,7.2,8.4c3.2,1.6,7.6,2.4,13.2,2.4h4.2h4.8c1.6,0,3.6-0.4,6-1.2c2.4-0.8,4-1.8,4.8-3
	c1.2-1.6,1.4-3.6,0.6-6C275,117.4,273.8,116.2,271.8,115.8z"/>
<path d="M233.5,82.9c4.8-0.4,9.8-1.4,15-3c2.8-0.8,6.6-3,11.4-6.6c6-4.8,9-10,9-15.6l-1.2-5.4c-1.6-3.2-3.6-5.6-6-7.2
	c-1.6-1.2-4.4-2.4-8.4-3.6l-10.8-2.4l-7.8-0.6L217.9,38h-1.8c-3.2,0-6.8,0.4-10.8,1.2c-3.2,1.2-4.8,2.6-4.8,4.2
	c0.4,3.6,3.2,5.8,8.4,6.6c6.4,0,12.2,0.2,17.4,0.6c8,0.8,13.2,1.6,15.6,2.4c5.6,2,8.4,4.4,8.4,7.2V62c0,1.2-2.6,3.2-7.8,6
	c-2.8,1.6-5.8,2.4-9,2.4c-2.8,0-5.4-0.6-7.8-1.8c-6.4-2.8-10.8-7.4-13.2-13.8c-0.8-2-1.8-3.2-3-3.6c-2.4-0.8-3.8-1.2-4.2-1.2
	l-1.2,0.6l-3,0.6c-1.6,0.4-2.4,2.2-2.4,5.4c0,2.4,0.8,5,2.4,7.8l3.6,5.4c2.4,3.6,5.4,6.8,9,9.6c0.8,0.8,1.4,1.2,1.8,1.2l-0.6,0.6
	c-3.6,0.4-5.4,3-5.4,7.8l-1.8,18c0,2.4-0.6,5.2-1.8,8.4c-2,3.2-3.6,5.2-4.8,6l-5.4,1.8c-2.8,0.4-4.2,1.8-4.2,4.2
	c0,1.6,2.4,2.4,7.2,2.4c4,0,6.8-0.6,8.4-1.8c5.2-2.4,9.6-6.6,13.2-12.6c1.6-2.8,3-7.6,4.2-14.4l0.6-6.6c0-3.2-0.8-6.2-2.4-9l-2.4-3
	c1.2,0.4,4,0.6,8.4,0.6L233.5,82.9L233.5,82.9z"/>
<path d="M204.2,26l1.8,2.4c2.4,2.4,4.2,3.6,5.4,3.6c1.2,0.4,3,0.2,5.4-0.6l3.6-0.6c2-1.2,3-3.4,3-6.6c-0.4-3.6-1.8-6.6-4.2-9
	c-2-1.6-4.6-2.4-7.8-2.4H209c-3.2,0.4-5.2,1.8-6,4.2c-0.4,0.4-0.6,1.6-0.6,3.6c0,2,0.2,3.2,0.6,3.6C203,24.6,203.4,25.2,204.2,26z"
	/>
<path d="M404.1,43.4v1.8c0,1.2,0.2,2,0.6,2.4c0,0.4,0.4,1,1.2,1.8c0.8,1.2,2.2,1.8,4.2,1.8c1.6,0,3.8-1.4,6.6-4.2
	c2.4-3.2,4.2-7.2,5.4-12c1.2-3.2,0.8-6.4-1.2-9.6c-1.6-1.2-4-1.2-7.2,0c-2.8,1.6-5.4,4.2-7.8,7.8c-1.6,2.8-2.4,5.4-2.4,7.8
	c0,0.8,0.2,1.4,0.6,1.8L404.1,43.4L404.1,43.4z"/>
<path d="M410.1,62c-0.8-1.6-2-2-3.6-1.2c-1.2,0.4-1.8,2.6-1.8,6.6v3c0.8,6.8,1.6,11.2,2.4,13.2c0.8,3.6,1.4,5.6,1.8,6
	c2,5.2,4,9,6,11.4c1.2,1.2,2.2,1.8,3,1.8c0.4,0.4,1,0.6,1.8,0.6l3-1.2c1.2-0.8,2.4-2,3.6-3.6c1.2-2,1.8-5.2,1.8-9.6
	c0-1.6-0.4-3.6-1.2-6c-0.4-1.2-1-2.2-1.8-3l-7.8-9L410.1,62z"/>
<path d="M376,12.9l-2.4,0.6c-0.8,0.8-1.6,3-2.4,6.6c-0.4,2.4-0.6,6.2-0.6,11.4l0.6,24l1.2,21c0,12.8-1.4,22.2-4.2,28.1
	c-0.4,1.2-1.4,2.6-3,4.2l-2.4,3c-1.6,2.8-2.4,5.4-2.4,7.8s0.6,4.2,1.8,5.4c2,2.8,5.4,0.8,10.2-6c4.4-4.4,7.6-12.6,9.6-24.5
	c1.2-8.4,1.8-18.8,1.8-31.1c0-18.4-1-32.5-3-42.5C379.6,15.5,378,12.9,376,12.9z"/>
<path d="M423.9,111c-2.4-2-6-1.4-10.8,1.8c-2.4,1.2-4.2,1.8-5.4,1.8c-2.4,0-4.4-2-6-6c-2.8-6-4.2-15.8-4.2-29.3
	c0-9.6,0.2-16.2,0.6-19.8l1.2-13.2c1.2-9.2,1.8-17.2,1.8-24c0-9.6-1.6-14.4-4.8-14.4c-1.2,0-2.2,0.6-3,1.8
	c-0.8,1.2-1.6,4.6-2.4,10.2l-1.8,22.8c-2,22.4-2.6,40.7-1.8,55.1c0,9.2,1.6,17.6,4.8,25.2c3.6,6,8.6,9,15,9l8.4-1.2
	c4.8-1.6,8.8-4.6,12-9c1.2-1.6,1.4-3.8,0.6-6.6C426.5,112.8,425.1,111.4,423.9,111z"/>
<path d="M368.2,84.1l3-10.2c0.4-1.2,0.6-3,0.6-5.4c0-2-0.2-3.4-0.6-4.2l-2.4-1.2c-0.4,0-1,0.4-1.8,1.2l-6.6,9l-3.6,3.6
	c-2,2-3.2,3.4-3.6,4.2l-2.4,3.6c-1.6,2-2.4,6.2-2.4,12.6c0,2.8,0.6,4.6,1.8,5.4c0.8,1.2,1.4,1.8,1.8,1.8c0.4,0.4,1,0.6,1.8,0.6
	c0.8,0.8,1.6,0.8,2.4,0c3.6-3.6,6.2-7,7.8-10.2C365.6,92.5,367,88.9,368.2,84.1z"/>
<path d="M524.6,40.3c1.8,0.5,3.2,0.7,4,0.4c1.6-0.5,2.4-1.6,2.4-3.2c-0.3-1.9-1.3-3.4-3.2-4.8c-1.9-1.9-4.1-2.8-6.8-2.8l-1.6,0.4
	c-2.1,0.5-3.2,1.5-3.2,2.8l0.4,1.6l4,2.8C523,39.4,524.3,40.3,524.6,40.3z M521.3,33.3c1.6,0.1,2.9,0.7,4,1.8l0.2,0.2l0.2,0.2
	c1.1,0.8,1.5,1.5,1.7,2.1c-0.2,0-0.8,0-1.8-0.3c-0.3-0.2-1.1-0.8-3.1-2.3l-0.1-0.1l-1.9-1.3L521.3,33.3z"/>
<path d="M564.6,108.1l-6-2.4h-1.2l-1.8,1.8c-0.4,1.2-0.4,2.6,0,4.2v4.8l-10.2-1.2c-1.6-0.4-8.8-0.6-21.5-0.6v-1.8l1.2-4.8
	c12.8-1.2,23.7-3.6,32.9-7.2c8.4-3.2,12.6-7.2,12.6-12c0-1.2-0.6-2.4-1.8-3.6c-3.2-3.2-6-5-8.4-5.4c-6.8-1.2-11.4-2-13.8-2.4
	c-9.6-0.8-16.4-1.2-20.4-1.2c0-2.4-0.2-3.8-0.6-4.2c-0.4-4-2.2-6-5.4-6l-3,0.6c-2,0.8-3.2,1.6-3.6,2.4c-0.4,0.8-0.8,1.7-1.2,2.7
	c-0.4,1-0.8,2.3-1.2,3.9h-19.8l-16.8,1.8c-4.8,0.8-6.8,1.8-6,3c0.4,2.8,4.6,4.2,12.6,4.2l29.3,0.6v8.4c0,2,0.2,3.4,0.6,4.2
	c-2.8,0-4.6-0.2-5.4-0.6c-8.8-2-15.2-5-19.2-9c-2-2-5.4-3-10.2-3h-2.4c-3.6,1.2-5.4,2.8-5.4,4.8c0,1.6,1.6,4,4.8,7.2l3,2.4
	c0.8,1.2,2.2,2.2,4.2,3c1.6,1.2,4.6,2.4,9,3.6c3.2,1.6,10.8,2.4,22.7,2.4l1.2,5.4h-2.4l-28.7,0.6l-8.4,0.6c-4.4,0.4-7.2,1.4-8.4,3
	c-1.2,1.2-1.6,2.8-1.2,4.8c0.8,2.4,2,3.8,3.6,4.2c4,0.8,7,1.2,9,1.2l19.2-1.2l29.3-1.8c6.8-0.4,14.4-0.6,22.8-0.6l7.2-0.6
	c1.6,4,4.6,6,9,6c6,0,9,0,9,0s0-2.2,0-6.6c0-2-1.2-5.4-3.6-10.2C568.8,111.4,567,109.6,564.6,108.1z M526.2,94.9l0.6-8.4
	c14,0.8,20,2.4,18,4.8c-1.2,2-3.2,3.2-6,3.6l-9.6,1.8c-0.4,0.4-1.6,0.6-3.6,0.6L526.2,94.9z"/>
<path d="M658.6,22.4l4.8,4.2c0.4,0.4,1,0.6,1.8,0.6l1.2,0.6c2.8,0.4,5.6,0.4,8.4,0c2.8-1.6,4.8-3.4,6-5.4c0.8-4,0.4-7-1.2-9
	c-1.2-1.6-3.2-3-6-4.2c-4-0.8-6.8-1.2-8.4-1.2c-2.4,0-4.2,0.6-5.4,1.8s-2,2.8-2.4,4.8c-0.4,0.4-0.6,1.6-0.6,3.6
	c0,0.8,0.2,1.4,0.6,1.8L658.6,22.4z"/>
<path d="M811.2,94.9c1.6-1.2,2.4-2.6,2.4-4.2l-0.6-1.8c-0.4-2.4-3.2-3.6-8.4-3.6h-1.8l-9.6,1.2v-4.2l0.6-18L801,62
	c4.8-1.2,7.2-3.2,7.2-6v-1.2c-0.4-1.6-1.8-2.8-4.2-3.6c-2.4,0-4-0.2-4.8-0.6c-0.4-0.4-1.8-0.6-4.2-0.6V38c0-5.6-2.6-8.4-7.8-8.4
	h-1.2c-3.6,0.4-6.2,4.8-7.8,13.2v6v2.4l-7.2,0.6l-3.6,1.2c-1.6,0.4-2.8,1.8-3.6,4.2c-0.8,4.4,0,7.8,2.4,10.2
	c1.2,1.2,2.8,1.8,4.8,1.8h1.8l5.4-1.2h1.2c0.4,6.8,1.4,13.2,3,19.2l0.6,1.2l-10.8,2.4l-4.2,1.2c-1.6,1.2-2.8,3-3.6,5.4
	c-1.2,4.4-0.2,7.8,3,10.2c1.6,1.6,4,1.8,7.2,0.6l6-1.8l13.2-4.8l12-4.2C808.2,96.5,810,95.7,811.2,94.9z"/>
<path d="M877.7,56c-5.6-4.4-11.2-7-16.8-7.8c-3.2,0-4.8-0.8-4.8-2.4c0-2,1.4-4.4,4.2-7.2l5.4-6c2-4,3-6.8,3-8.4v-3
	c-0.8-4.4-3.2-7.8-7.2-10.2c-4.4-2-9.2-3.2-14.4-3.6c-9.2,0-15.8,0.2-19.8,0.6c-4.4,0.8-7.6,1.8-9.6,3c-2,1.2-3,3.2-3,6
	c0,2,0.6,3.6,1.8,4.8c2,2,5,3,9,3c0.8,0,2.8-0.4,6-1.2c0.8-0.4,3-0.6,6.6-0.6c7.2,0,10.8,1.6,10.8,4.8c0,1.2-1,3.2-3,6l-3.6,5.4
	c-2,3.2-5.6,6-10.8,8.4c-0.8,0.4-2.4,0.6-4.8,0.6h-2.4l-4.8,1.2c-2.4,1.6-3.6,3.4-3.6,5.4s0.2,3.2,0.6,3.6c1.2,3.6,4.6,5.4,10.2,5.4
	l0.6,7.8c0,3.6-1.6,9-4.8,16.2c-2.8,5.2-6,9.2-9.6,12l-3.6,3c-2.4,1.6-3.6,3.2-3.6,4.8c0,1.2,0.2,2,0.6,2.4c0.8,1.2,2.4,1.8,4.8,1.8
	c2.4,0,4-0.2,4.8-0.6c0.8-0.4,1.8-0.6,3-0.6c2-0.8,5-2.6,9-5.4l7.2-9c3.6-5.6,5.4-13.2,5.4-22.8c0-4.8-0.6-8-1.8-9.6
	c1.6-0.4,4.8-0.6,9.6-0.6h0.6h0.6v7.2c-0.8,5.2-2,10.8-3.6,16.8c-2,7.2-3.8,12.2-5.4,15c-4,6.4-7.2,10.2-9.6,11.4l-3.6,3
	c-2.4,1.6-3.6,3.4-3.6,5.4c0,1.2,0.2,2,0.6,2.4c2,1.2,3.6,1.8,4.8,1.8c2.8,0,5.4-0.6,7.8-1.8c4.8-2,7.8-3.6,9-4.8l7.2-9
	c1.2-2.4,3.2-7.8,6-16.2c2.4-8,3.6-13.8,3.6-17.4l0.6-4.8c0-2-0.4-4.2-1.2-6.6l6.6,4.2c2.4,4,3.6,8.8,3.6,14.4s-1,12-3,19.2
	c-2,7.2-3.8,11-5.4,11.4c-0.8,0.8-2.4,1-4.8,0.6c-3.2,0-5.2,0.2-6,0.6c-1.2,0.4-1.8,2.2-1.8,5.4c0,2.8,2,5.6,6,8.4
	c2,1.2,4.8,1.2,8.4,0c3.2-0.4,6.2-2.4,9-6c4-4.8,7-10.6,9-17.4c2-7.2,3-18.2,3-32.9C886.7,66.5,883.7,60.8,877.7,56z"/>
<rect x="663.7" y="75.3" width="11.2" height="3.5"/>
<rect x="668" y="78.9" width="2.6" height="38.6"/>
<path d="M477.8,72.7c6.4,0,15.6-2.6,27.5-7.8c6.4-2.8,12.2-5,17.4-6.6l13.8,6.6l14.4,7.2c4.8,1.6,8,2.4,9.6,2.4c4,0,6.6-1.4,7.8-4.2
	c1.2-3.6-2.4-7.6-10.8-12l-18.6-7.8c8.4-4.4,14.2-8.2,17.4-11.4c4.8-4.4,7.2-8.4,7.2-12c0-3.2-1.6-5.8-4.8-7.8
	c-6-4.8-17.2-7.2-33.5-7.2c-16,0-29.1,1.2-39.5,3.6c-4,1.2-6,3-6,5.4c0,2,2.4,3,7.2,3l6.1-0.5c0.1,0.4,0.2,0.7,0.5,1
	c0.3,0.3,0.8,0.5,1.3,0.5s0.9-0.2,1.3-0.6c0.3-0.3,0.5-0.8,0.5-1.2l4.1-0.3l0,1.6c0,0.5,0.2,1,0.5,1.3c0.3,0.3,0.8,0.5,1.3,0.5
	s0.9-0.2,1.3-0.6s0.5-0.8,0.5-1.3l0-1.8l4.1-0.2l0,2.5c0,0.5,0.2,1,0.5,1.3c0.3,0.3,0.8,0.5,1.3,0.5s0.9-0.2,1.3-0.6
	s0.5-0.8,0.5-1.3l0-2.6l3.6-0.2c0.2,0,0.3,0,0.5,0l0,2.8c0,0.5,0.2,1,0.5,1.3c0.3,0.3,0.8,0.5,1.3,0.5s0.9-0.2,1.3-0.6
	s0.5-0.8,0.5-1.3l0-2.7c1.4,0,2.8,0.1,4.1,0.1l0,3.5c0,0.5,0.2,1,0.5,1.3c0.3,0.3,0.8,0.5,1.3,0.5s0.9-0.2,1.3-0.6s0.5-0.8,0.5-1.3
	l0-3.3c1.5,0.1,2.8,0.2,4.1,0.3l0.1,3.9c0,0.5,0.2,1,0.5,1.3c0.3,0.3,0.8,0.5,1.3,0.5s0.9-0.2,1.3-0.6s0.5-0.8,0.5-1.3l0-3.4
	c1.2,0.2,2.3,0.4,3.2,0.7c3.6,1.6,5.8,3.2,6.6,4.8c0.4,1.2,0.4,2.6,0,4.2c-0.4,1.6-1.2,3-2.4,4.2c-2,2-3.6,3.2-4.8,3.6
	c-1.2,0.8-4.4,2.2-9.6,4.2l-1.2,0.6l-3-1.2c-0.8-0.4-6.8-2.6-18-6.6c-2.4-0.8-10.2-3-23.3-6.6c-4-0.8-7-1.2-9-1.2h-1.8l-1.2,0.6v0.6
	c0,0.8,0.6,1.6,1.8,2.4l6,3.6l5.4,2.4l24,11.4l-28.1,6c-8,3.2-12,6.4-12,9.6l0.6,2.4C469.8,71.5,473,72.7,477.8,72.7z"/>
<path d="M724.4,38c-1.2-0.8-3.8-1.6-7.8-2.4l-19.2-1.8c-20-2-36.9-3-50.9-3H634c-3.6,0-7.6,0.6-12,1.8c-4,1.2-6,3.6-6,7.2
	c0,2.4,2.2,4.8,6.6,7.2l9.6,0.6c6.4,0,11.2-0.2,14.4-0.6c2.8-0.4,6.6-0.6,11.4-0.6h3c-0.8,4-1.2,7-1.2,9V56l-21,1.8
	c-5.6,0.8-9.4,1.6-11.4,2.4c-3.2,1.2-4.8,3-4.8,5.4c0,1.2,1.6,2.2,4.8,3c-3.6,2.8-5.4,6.2-5.4,10.2v0.6l2.4,10.8l1.8,9
	c0.8,3.2,3.2,9.6,7.2,19.2c1.2,2,2.4,3.4,3.6,4.2l2.4,1.2l1.2-0.6l1.2-1.8c0.4-2.4,0.4-4.4,0-6c-0.4-0.8-0.6-2.8-0.6-6
	c0-4.4-0.2-8-0.6-10.8c-0.4-1.2-0.6-3.8-0.6-7.8v-8.4c0-4.4-0.2-7.6-0.6-9.6l-1.2-3.6l21-0.6l1.9,0.1v60.5c0,2.1,0.5,4.2,1.5,5.9
	l5,9c0.4,0.7,1,1.2,1.7,1.2c0.7,0,1.3-0.4,1.7-1.2l5-9c0.9-1.7,1.5-3.8,1.5-5.9V69.3c9.1,1.2,15.6,3,19.5,5.3
	c4.4,2.4,6.6,6.4,6.6,12c0,5.2-1.4,11.2-4.2,18c-2,6-3,10.6-3,13.8c0,2.8,1.6,4.2,4.8,4.2c2,0,3.4-0.2,4.2-0.6c2.4-1.2,4.4-3.2,6-6
	l3-6c4.8-9.6,7.2-18.2,7.2-25.7c0-9.2-3.4-16-10.2-20.4c-5.2-3.2-14.2-5.6-26.9-7.2c-3.2,0-5.2-0.2-6-0.6l0.6-8.4v-1.2v-0.6
	c4.4-0.4,12.2-0.6,23.3-0.6l12.6-0.6c7.6,0,11.4,0,11.4,0s0-1.4,0-4.2C726.2,39.2,725.6,38.4,724.4,38z M663.7,56.7
	c0-3.1,2.5-5.6,5.6-5.6s5.6,2.5,5.6,5.6v7h-11.2L663.7,56.7L663.7,56.7z M663.7,68.7L663.7,68.7l0,3.5h11.2v-3.1h0v48.5l-4.3,0v0
	H668v0h-4.3V68.7z M674.9,129c0,0.3,0,0.6,0,0.9c-0.1,1-0.4,2-0.9,2.9l-4.7,8.4l4.7-8.4c0.5-0.8,0.8-1.8,0.9-2.9h-10.6v0
	c-0.2,0-0.3,0-0.5,0.1c0-0.3-0.1-0.7-0.1-1v-8h11.2L674.9,129z"/>
<g>
	<path d="M364,32c-2.4-4-5.2-6-8.4-6c-0.8,0-1.4,0.2-1.8,0.6c-1.2,0.4-1.8,2.2-1.8,5.4v6c2,7.2,4,12.2,6,15c1.6,1.6,3.2,2.2,4.8,1.8
		c1.6-0.4,2.4-0.8,2.4-1.2L367,50c0.8-2.4,1.2-4.4,1.2-6C368.2,40,366.8,36,364,32z"/>
	<path d="M346.6,50c2.8-5.2,4.2-10,4.2-14.4c0-3.2-0.6-6-1.8-8.4c-2-4-3.6-6.4-4.8-7.2c-2-1.6-4.2-2.6-6.6-3l-6.6-1.8l-6-0.6h-4.8
		c-3.2,0-5.8,0.2-7.8,0.6c-1.1,0.3-2.1,0.6-3,0.9c-3.7-1.6-5.6-5.8-4.3-9.7c0.9-2.5,3.2-4.1,5.7-4.2l0,0c0,1.3,1,2.3,2.3,2.3
		s2.3-1,2.3-2.3s-1-2.3-2.3-2.3c-0.9,0-1.6,0.5-2,1.3c-3-0.1-5.9,1.8-6.9,4.9c-1.4,4.1,0.4,8.5,4,10.5c-2,0.9-3.5,1.9-4.3,3
		c-0.8-1.4-1.9-2.5-3.3-3.3c-2.1-1.2-4.4-1.5-6.7-0.8c-3.4,1-5.6,4.2-5.2,7.7c-0.8,0.4-1.4,1.1-1.4,2.1c0,1.3,1,2.3,2.3,2.3
		s2.3-1,2.3-2.3c0-1.2-1-2.2-2.2-2.3c-0.3-2.9,1.6-5.7,4.5-6.5c2-0.6,4.1-0.3,6,0.7c1.4,0.8,2.5,2,3.2,3.4c-0.2,0.5-0.4,1.1-0.4,1.7
		v0.6l0.6,12.6c0,2,1,5.4,3,10.2c2,5.2,5.4,10.2,10.2,15c1.6,1.6,3.6,2.4,6,2.4l-0.6,4.2c-0.4,2.8-0.4,6.2,0,10.2
		c0.4,2.8,0.6,6,0.6,9.6c0,7.2,0.6,14.4,1.8,21.5l-2.4,0.6c0.4-0.4-1.4,0-5.4,1.2V93.7c0-2.8,0.2-5.2,0.6-7.2c0-4-0.2-7.2-0.6-9.6
		c-0.8-4.4-2.6-6.6-5.4-6.6h-1.2c-2,0.8-3.6,2-4.8,3.6c-1.2,1.6-1.8,4.2-1.8,7.8l1.8,14.4l1.8,7.2l1.8,9.6h-0.6l-3.6,1.8
		c-2.4,1.6-3.6,3.8-3.6,6.6c0,1.6,0.2,2.8,0.6,3.6c0.4,1.6,1.4,2.8,3,3.6c2,1.2,4.4,1.2,7.2,0l6.6-2.4l24.5-9.6l4.8-2.4
		c1.6-1.2,2.4-2.4,2.4-3.6c0-0.8-0.2-1.4-0.6-1.8c-0.4-1.2-1.2-2-2.4-2.4h-4.2h-1.2h-3c-2.4,0-4,0.2-4.8,0.6
		c0-6.8,0.2-11.6,0.6-14.4c2.4,0,4.2-0.2,5.4-0.6l4.8-1.2c2.4,0,3.6-1.4,3.6-4.2v-0.6c-0.8-2.4-1.4-3.8-1.8-4.2l-2.4-1.2
		c-1.2-1.2-3.6-1.8-7.2-1.8l-1.8-0.6c0.4-2,0.6-6.2,0.6-12.6v-1.2c0-2.4-0.2-3.8-0.6-4.2C339.7,58.2,343.4,54.8,346.6,50z
		 M306.2,32.6c-1.7-4.3-0.8-9.3,2.5-12.6s8.2-4.4,12.5-2.8L306.2,32.6z M329.3,57.5c-5,0.5-9-1.6-12.2-5.4c-3.6-4.3-6.6-9-9.9-13.5
		l8.9-8.9l17.7,17.7l3-3L319,26.8c2.3-2.3,4.6-4.7,7-7c0.5-0.5,3,0.6,3.6,0.8c2.9,0.9,5.7,1.7,8.6,2.6c2.5,0.8,4.9,2,6.6,4
		c2,2.3,2.9,5.5,2.8,8.6c-0.1,5.8-2.4,12-6.5,16.1C338,55,333.7,57,329.3,57.5z"/>
</g>
</svg>
