<?xml version="1.0" encoding="utf-8"?>
<!-- Generator: Adobe Illustrator 23.0.0, SVG Export Plug-In . SVG Version: 6.00 Build 0)  -->
<svg version="1.1" id="图层_1" xmlns="http://www.w3.org/2000/svg" xmlns:xlink="http://www.w3.org/1999/xlink" x="0px" y="0px"
	 viewBox="0 0 1024 1024" style="enable-background:new 0 0 1024 1024;" xml:space="preserve">
<g>
	<path d="M792.7,608.9c-22.1,0-40,19-40,42.4v114c0,25.2-19.4,45.7-43.2,45.7h-95.3c-22.1,0-40,19-40,42.4c0,23.4,17.9,42.4,40,42.4
		h95.3c68,0,123.3-58.5,123.3-130.4v-114C832.8,627.9,814.8,608.9,792.7,608.9z"/>
	<path d="M945.1,500.8L547.5,80.2c-20.2-21.3-53.2-21.3-73.4,0L76.5,500.7c-14.9,15.7-16.6,40.2-3.4,57.3
		c15.3,19.7,42.8,20.8,59.4,3.3l52.1-55.1c3.1-3.3,8.6-1.1,8.6,3.5v255.6c0,71.9,55.3,130.4,123.3,130.4h100.2
		c8.8,0,17.6-2.2,25.5-6.3c19.7-10.3,31.9-31.2,31.9-54.4v-106c0-25.2,19.4-45.7,43.2-45.7h140c22.1,0,40-19,40-42.4
		c0-23.4-17.9-42.4-40-42.4H517.2c-68,0-123.3,58.5-123.3,130.4v40.7c0,22.8-18.4,41.3-41,41.3h-36.4c-23.8,0-43.2-20.5-43.2-45.7
		V443.3c0-19.8,7.6-38.9,21.2-53.3l200.1-211.6c8.9-9.4,23.7-9.4,32.6,0l362,382.8c7.8,8.3,18.1,12.4,28.3,12.4
		c11.5,0,23.1-5.2,31.1-15.7C961.7,540.8,960,516.4,945.1,500.8z"/>
</g>
</svg>
