<?xml version="1.0" encoding="utf-8"?>
<!-- Generator: Adobe Illustrator 23.0.0, SVG Export Plug-In . SVG Version: 6.00 Build 0)  -->
<svg version="1.1" id="图层_1" xmlns="http://www.w3.org/2000/svg" xmlns:xlink="http://www.w3.org/1999/xlink" x="0px" y="0px"
	 viewBox="0 0 1024 1024" style="enable-background:new 0 0 1024 1024;" xml:space="preserve">
<g>
	<path d="M840.18,382.54c0,6.25-0.15,12.18-0.46,17.81c-0.31,5.62-0.78,11.55-1.41,17.8c-5.62,51.85-17.02,101.67-34.2,149.45
		c-17.17,47.79-38.88,93.7-65.12,137.75c-26.24,44.04-56.53,86.36-90.89,126.97c-34.36,40.6-71.53,79.65-111.51,117.13
		c-5.62,6.87-12.81,10.3-21.55,10.3c-9.37,0-16.87-3.43-22.49-10.3c-39.98-37.48-77.3-76.84-111.97-118.07
		c-34.67-41.23-65.28-84.33-91.83-129.31c-26.55-44.98-48.41-91.67-65.59-140.09c-17.18-48.41-28.27-98.86-33.26-151.33
		c0-5-0.16-9.68-0.47-14.05c-0.31-4.37-0.47-9.06-0.47-14.06c0-43.73,8.59-84.96,25.77-123.69c17.18-38.73,40.45-72.46,69.81-101.2
		c29.36-28.74,63.87-51.54,103.54-68.4c39.67-16.87,81.99-25.3,126.97-25.3c44.98,0,87.14,8.44,126.5,25.3
		c39.35,16.87,73.71,39.67,103.08,68.4c29.36,28.73,52.63,62.47,69.81,101.2C831.59,297.58,840.18,338.81,840.18,382.54
		L840.18,382.54z M515.03,528.71c20.61,0,39.98-3.9,58.09-11.71c18.12-7.81,33.89-18.27,47.32-31.39
		c13.43-13.12,24.05-28.58,31.86-46.39c7.81-17.81,11.71-36.7,11.71-56.69c0-19.99-3.9-38.89-11.71-56.69
		c-7.81-17.8-18.43-33.27-31.86-46.38c-13.43-13.12-29.2-23.58-47.32-31.39c-18.11-7.81-37.48-11.71-58.09-11.71
		c-20.61,0-39.98,3.9-58.09,11.71c-18.12,7.81-34.05,18.27-47.79,31.39c-13.74,13.12-24.52,28.58-32.33,46.38
		c-7.81,17.8-11.71,36.7-11.71,56.69c0,19.99,3.91,38.88,11.71,56.69c7.81,17.81,18.58,33.26,32.33,46.39
		c13.74,13.12,29.67,23.58,47.79,31.39C475.05,524.81,494.42,528.71,515.03,528.71L515.03,528.71z M515.03,528.71"/>
</g>
</svg>
