<?xml version="1.0" encoding="utf-8"?>
<!-- Generator: Adobe Illustrator 23.0.0, SVG Export Plug-In . SVG Version: 6.00 Build 0)  -->
<svg version="1.1" id="图层_1" xmlns="http://www.w3.org/2000/svg" xmlns:xlink="http://www.w3.org/1999/xlink" x="0px" y="0px"
	 viewBox="0 0 1024 1024" style="enable-background:new 0 0 1024 1024;" xml:space="preserve">
<style type="text/css">
	.st0{stroke:#FFFFFF;stroke-miterlimit:10;}
</style>
<path class="st0" d="M512,63.9C264.5,63.9,63.9,264.5,63.9,512S264.5,960.1,512,960.1S960.1,759.5,960.1,512S759.5,63.9,512,63.9z
	 M801.6,483.4l-99.1,96.4c-9.8,9.6-14.3,23.3-12,36.8l23.3,136.3c5.8,34-29.9,59.9-60.4,43.8l-122.3-64.4c-12.1-6.4-26.6-6.4-38.7,0
	L370,796.4c-30.5,16-66.2-9.9-60.3-43.9l23.5-136.2c2.3-13.5-2.1-27.3-11.9-36.8l-98.9-96.6c-24.7-24.1-11-66,23.1-70.9l136.8-19.8
	c13.6-2,25.3-10.5,31.3-22.7l61.3-123.9c15.3-30.9,59.4-30.9,74.6,0.1l61.1,124c6,12.3,17.7,20.8,31.3,22.8l136.8,20
	C812.7,417.4,826.3,459.3,801.6,483.4z"/>
</svg>
