<?xml version="1.0" encoding="utf-8"?>
<!-- Generator: Adobe Illustrator 23.0.0, SVG Export Plug-In . SVG Version: 6.00 Build 0)  -->
<svg version="1.1" id="图层_1" xmlns="http://www.w3.org/2000/svg" xmlns:xlink="http://www.w3.org/1999/xlink" x="0px" y="0px"
	 viewBox="0 0 1024 1024" style="enable-background:new 0 0 1024 1024;" xml:space="preserve">
<path d="M512.99,69.13c-245.35,0-444.25,198.9-444.25,444.25s198.9,444.25,444.25,444.25s444.25-198.9,444.25-444.25
	S758.35,69.13,512.99,69.13z M749.98,693.8c15.62,15.62,15.62,40.95,0,56.57c-15.62,15.62-40.95,15.62-56.57,0L512.99,569.95
	L332.58,750.37c-15.62,15.62-40.95,15.62-56.57,0s-15.62-40.95,0-56.57l180.42-180.42L276.01,332.97
	c-15.62-15.62-15.62-40.95,0-56.57c15.62-15.62,40.95-15.62,56.57,0l180.42,180.42L693.41,276.4c15.62-15.62,40.95-15.62,56.57,0
	s15.62,40.95,0,56.57L569.56,513.38L749.98,693.8z"/>
</svg>
