<?xml version="1.0" encoding="utf-8"?>
<!-- Generator: Adobe Illustrator 23.0.0, SVG Export Plug-In . SVG Version: 6.00 Build 0)  -->
<svg version="1.1" id="图层_1" xmlns="http://www.w3.org/2000/svg" xmlns:xlink="http://www.w3.org/1999/xlink" x="0px" y="0px"
	 viewBox="0 0 1024 1024" style="enable-background:new 0 0 1024 1024;" xml:space="preserve">
<path d="M581.04,499.97L828,253.01c15.87-15.87,16.19-42.17,0-57.72c-15.66-15.05-40.56-14.86-55.99,0.57L524.54,443.33
	c-6.83,6.83-17.91,6.83-24.74,0L251.97,195.5c-15.87-15.87-42.17-16.19-57.72,0c-15.05,15.66-14.86,40.56,0.57,55.99L442.94,499.6
	c6.99,6.99,6.99,18.33,0,25.33L195.49,772.38c-15.68,15.68-16.1,41.76-0.3,57.32c7.78,7.66,17.92,11.49,28.06,11.49
	c10.24,0,20.47-3.91,28.28-11.72l248.38-248.38c6.77-6.77,17.74-6.77,24.51,0l247.44,247.44c7.81,7.81,18.05,11.72,28.28,11.72
	c10.14,0,20.27-3.83,28.05-11.49c15.81-15.56,15.39-41.64-0.3-57.32L581.04,524.57C574.25,517.77,574.25,506.76,581.04,499.97z"/>
</svg>
