<?xml version="1.0" encoding="utf-8"?>
<!-- Generator: Adobe Illustrator 23.0.0, SVG Export Plug-In . SVG Version: 6.00 Build 0)  -->
<svg version="1.1" id="图层_1" xmlns="http://www.w3.org/2000/svg" xmlns:xlink="http://www.w3.org/1999/xlink" x="0px" y="0px"
	 viewBox="0 0 1024 1024" style="enable-background:new 0 0 1024 1024;" xml:space="preserve">
<path d="M712.69,623.3c-38.34,0-72.76,16.65-96.46,43.09L404.47,563.28c4.06-14.68,6.24-30.15,6.24-46.12
	c0-18.31-2.86-35.95-8.14-52.51l209.35-113.74c23.75,27.47,58.85,44.85,97.99,44.85c71.48,0,129.49-58,129.49-129.49
	c0-71.49-58-129.49-129.49-129.49c-71.49,0-129.49,58-129.49,129.49c0,10.66,1.3,21.02,3.73,30.93L374.36,411.19
	c-31.59-40.57-80.9-66.68-136.3-66.68c-95.35,0-172.65,77.31-172.65,172.65c0,95.35,77.3,172.65,172.65,172.65
	c57.8,0,108.96-28.41,140.29-72.02l209.13,101.83c-2.8,10.59-4.29,21.7-4.29,33.17c0,71.57,57.92,129.57,129.49,129.57
	c71.49,0,129.49-58,129.49-129.57C842.18,681.3,784.18,623.3,712.69,623.3z"/>
</svg>
