<?xml version="1.0" encoding="utf-8"?>
<!-- Generator: Adobe Illustrator 23.0.0, SVG Export Plug-In . SVG Version: 6.00 Build 0)  -->
<svg version="1.1" id="图层_1" xmlns="http://www.w3.org/2000/svg" xmlns:xlink="http://www.w3.org/1999/xlink" x="0px" y="0px"
	 viewBox="0 0 1024 1024" style="enable-background:new 0 0 1024 1024;" xml:space="preserve">
<path d="M924.8,337.6c-22.57-53.35-54.87-101.26-96-142.4c-41.13-41.13-89.04-73.43-142.4-96C631.14,75.83,572.46,63.98,512,63.98
	S392.86,75.83,337.6,99.2c-53.35,22.57-101.26,54.87-142.4,96c-41.13,41.13-73.43,89.04-96,142.4
	C75.83,392.86,63.98,451.54,63.98,512S75.83,631.14,99.2,686.4c22.57,53.35,54.87,101.26,96,142.4c41.13,41.13,89.04,73.43,142.4,96
	c55.26,23.37,113.94,35.22,174.4,35.22s119.14-11.85,174.4-35.22c53.35-22.57,101.26-54.87,142.4-96s73.43-89.04,96-142.4
	c23.37-55.26,35.22-113.94,35.22-174.4S948.17,392.86,924.8,337.6z M816.2,370.08L497.28,689.01c-10.01,10-23.15,15-36.29,15
	s-26.28-5-36.29-15.01L207.8,472.1c-11.46-11.46-11.46-30.03,0-41.49c11.46-11.46,30.03-11.46,41.49,0L461,642.32l313.73-313.73
	c11.46-11.46,30.03-11.46,41.49,0C827.66,340.05,827.66,358.63,816.2,370.08z"/>
</svg>
