<?xml version="1.0" encoding="utf-8"?>
<!-- Generator: Adobe Illustrator 23.0.0, SVG Export Plug-In . SVG Version: 6.00 Build 0)  -->
<svg version="1.1" id="图层_1" xmlns="http://www.w3.org/2000/svg" xmlns:xlink="http://www.w3.org/1999/xlink" x="0px" y="0px"
	 viewBox="0 0 1024 1024" style="enable-background:new 0 0 1024 1024;" xml:space="preserve">
<path d="M512,960.02c-60.46,0-119.14-11.85-174.4-35.22c-53.35-22.57-101.26-54.87-142.4-96c-41.13-41.13-73.43-89.04-96-142.4
	C75.83,631.14,63.98,572.46,63.98,512S75.83,392.86,99.2,337.6c22.57-53.35,54.87-101.26,96-142.4c41.13-41.13,89.04-73.43,142.4-96
	C392.86,75.83,451.54,63.98,512,63.98S631.14,75.83,686.4,99.2c53.35,22.57,101.26,54.87,142.4,96c41.13,41.13,73.43,89.04,96,142.4
	c23.37,55.26,35.22,113.94,35.22,174.4s-11.85,119.14-35.22,174.4c-22.57,53.35-54.87,101.26-96,142.4s-89.04,73.43-142.4,96
	C631.14,948.17,572.46,960.02,512,960.02z M512,143.98c-202.93,0-368.02,165.09-368.02,368.02S309.07,880.02,512,880.02
	S880.02,714.93,880.02,512S714.93,143.98,512,143.98z"/>
</svg>
