<?xml version="1.0" encoding="utf-8"?>
<!-- Generator: Adobe Illustrator 23.0.0, SVG Export Plug-In . SVG Version: 6.00 Build 0)  -->
<svg version="1.1" id="图层_1" xmlns="http://www.w3.org/2000/svg" xmlns:xlink="http://www.w3.org/1999/xlink" x="0px" y="0px"
	 viewBox="0 0 1024 1024" style="enable-background:new 0 0 1024 1024;" xml:space="preserve">
<path d="M512,63.78C264.45,63.78,63.78,264.45,63.78,512S264.45,960.22,512,960.22S960.22,759.55,960.22,512S759.55,63.78,512,63.78
	z M804.67,262.54c-0.01,0.22-0.03,0.45-0.05,0.67c-0.04,0.61-0.1,1.22-0.18,1.83c-0.02,0.19-0.04,0.38-0.07,0.56
	c-0.22,1.64-0.55,3.27-0.97,4.89c-0.01,0.04-0.02,0.08-0.03,0.13L655.61,822.09c-3.7,13.8-14.48,24.59-28.28,28.28
	c-3.42,0.92-6.9,1.36-10.35,1.36c-10.47,0-20.69-4.12-28.29-11.72L460.82,712.15c-15.62-15.62-15.62-40.95,0-56.57
	c15.62-15.62,40.95-15.62,56.57,0l59.3,59.3c8.7,8.7,23.56,4.72,26.74-7.17l79.63-297.2c1.21-4.5-4.33-7.7-7.62-4.4l-275.4,275.4
	c-4.69,4.69-7.33,11.04-7.36,17.67l-0.39,99.49c-0.09,22.04-17.98,39.84-40,39.84c-0.05,0-0.11,0-0.16,0
	c-22.09-0.09-39.93-18.07-39.84-40.16l0.49-126.32c0.04-11.07,4.58-21.07,11.87-28.28c0.03-0.03,0.06-0.06,0.09-0.1l294.12-294.12
	c3.3-3.3,0.1-8.83-4.4-7.62l-297.2,79.63c-11.89,3.18-15.87,18.04-7.17,26.74l59.58,59.58c15.62,15.62,15.62,40.95,0,56.57
	c-15.62,15.62-40.95,15.62-56.57,0L184.98,436.31c-10.1-10.1-14.05-24.83-10.35-38.64c3.7-13.8,14.48-24.59,28.28-28.28
	l551.48-147.77c0.05-0.01,0.09-0.02,0.14-0.03c1.6-0.42,3.23-0.75,4.86-0.97c0.2-0.03,0.39-0.05,0.59-0.07
	c0.6-0.07,1.2-0.13,1.8-0.17c0.23-0.02,0.46-0.04,0.69-0.05c0.77-0.04,1.53-0.07,2.3-0.07c0.11,0,0.22,0.01,0.33,0.01
	c0.68,0.01,1.35,0.03,2.03,0.07c0.23,0.01,0.46,0.03,0.7,0.05c0.62,0.05,1.23,0.11,1.84,0.18c0.17,0.02,0.33,0.04,0.5,0.06
	c1.61,0.22,3.21,0.54,4.8,0.96c0.09,0.02,0.19,0.05,0.28,0.08c2.42,0.66,4.8,1.55,7.09,2.67c0.03,0.01,0.06,0.03,0.09,0.04
	c2.24,1.1,4.4,2.43,6.45,3.98c0.14,0.1,0.27,0.21,0.41,0.32c0.51,0.4,1.01,0.8,1.5,1.23c0.16,0.14,0.32,0.27,0.47,0.41
	c0.61,0.54,1.2,1.09,1.78,1.67c0.58,0.58,1.13,1.18,1.67,1.78c0.14,0.16,0.27,0.32,0.41,0.47c0.42,0.49,0.83,0.99,1.22,1.5
	c0.11,0.14,0.21,0.27,0.32,0.41c1.55,2.04,2.87,4.2,3.97,6.44c0.02,0.03,0.03,0.07,0.05,0.1c1.12,2.28,2,4.65,2.66,7.07
	c0.03,0.1,0.05,0.2,0.08,0.3c0.21,0.78,0.39,1.57,0.55,2.37c0,0.01,0,0.01,0,0.02c0.16,0.8,0.29,1.6,0.4,2.4
	c0.02,0.17,0.04,0.33,0.06,0.5c0.08,0.61,0.14,1.23,0.18,1.84c0.02,0.23,0.04,0.46,0.05,0.7c0.04,0.68,0.06,1.35,0.07,2.03
	c0,0.11,0.01,0.21,0.01,0.32C804.74,261,804.71,261.77,804.67,262.54z"/>
</svg>
