<?xml version="1.0" encoding="utf-8"?>
<!-- Generator: Adobe Illustrator 23.0.0, SVG Export Plug-In . SVG Version: 6.00 Build 0)  -->
<svg version="1.1" id="图层_1" xmlns="http://www.w3.org/2000/svg" xmlns:xlink="http://www.w3.org/1999/xlink" x="0px" y="0px"
	 viewBox="0 0 1024 1024" style="enable-background:new 0 0 1024 1024;" xml:space="preserve">
<g>
	<path d="M793.13,204.56H233c-52.31,0-94.87,42.56-94.87,94.87v270.01c0,22.94,18.6,41.54,41.54,41.54s41.54-18.6,41.54-41.54
		V299.42c0-6.39,5.4-11.79,11.79-11.79h560.13c6.39,0,11.79,5.4,11.79,11.79v341.86L604.93,441.31c-16.22-16.22-42.52-16.22-58.75,0
		L371.72,615.77l-41.74-41.74c-16.22-16.22-42.52-16.22-58.75,0L150.31,694.95c-0.49,0.49-0.96,0.99-1.43,1.5
		c-0.21,0.23-0.4,0.46-0.6,0.69c-0.24,0.28-0.49,0.56-0.73,0.84c-0.25,0.31-0.49,0.62-0.73,0.93c-0.17,0.22-0.34,0.43-0.51,0.65
		c-0.26,0.35-0.51,0.71-0.76,1.06c-0.14,0.2-0.28,0.39-0.41,0.58c-0.25,0.37-0.48,0.74-0.72,1.12c-0.12,0.2-0.25,0.39-0.37,0.59
		c-0.22,0.37-0.43,0.75-0.64,1.12c-0.12,0.22-0.25,0.43-0.36,0.65c-0.19,0.36-0.37,0.71-0.55,1.07c-0.13,0.25-0.26,0.51-0.38,0.76
		c-0.16,0.33-0.3,0.66-0.45,0.99c-0.13,0.3-0.26,0.6-0.39,0.9c-0.12,0.29-0.24,0.59-0.35,0.89c-0.13,0.34-0.27,0.69-0.39,1.04
		c-0.09,0.26-0.18,0.52-0.27,0.79c-0.13,0.39-0.26,0.77-0.38,1.17c-0.07,0.23-0.13,0.47-0.2,0.7c-0.12,0.42-0.24,0.84-0.34,1.26
		c-0.05,0.22-0.1,0.44-0.15,0.66c-0.1,0.44-0.2,0.88-0.29,1.32c-0.04,0.22-0.08,0.45-0.12,0.68c-0.08,0.44-0.16,0.87-0.22,1.31
		c-0.04,0.26-0.07,0.52-0.1,0.79c-0.05,0.4-0.11,0.81-0.15,1.21c-0.03,0.35-0.05,0.7-0.08,1.06c-0.02,0.32-0.05,0.64-0.07,0.97
		c-0.03,0.68-0.05,1.37-0.05,2.05c0,52.31,42.56,94.87,94.87,94.87h560.13c52.31,0,94.87-42.56,94.87-94.87V299.42
		C887.99,247.11,845.44,204.56,793.13,204.56z M227.87,734.88l72.73-72.73l41.74,41.74c8.11,8.11,18.74,12.17,29.37,12.17
		s21.26-4.06,29.37-12.17l174.47-174.47l206.69,206.69H233C231.17,736.12,229.43,735.66,227.87,734.88z"/>
	<ellipse transform="matrix(0.9871 -0.1602 0.1602 0.9871 -51.4989 118.861)" cx="711.5" cy="378.86" rx="40.72" ry="40.72"/>
</g>
</svg>
