<?xml version="1.0" encoding="utf-8"?>
<!-- Generator: Adobe Illustrator 23.0.0, SVG Export Plug-In . SVG Version: 6.00 Build 0)  -->
<svg version="1.1" id="图层_1" xmlns="http://www.w3.org/2000/svg" xmlns:xlink="http://www.w3.org/1999/xlink" x="0px" y="0px"
	 viewBox="0 0 1024 1024" style="enable-background:new 0 0 1024 1024;" xml:space="preserve">
<path d="M829.65,927.81H196.57c-54.13,0-98.16-44.03-98.16-98.16V196.57c0-54.13,44.03-98.16,98.16-98.16h633.07
	c54.13,0,98.16,44.03,98.16,98.16v633.07C927.81,883.77,883.77,927.81,829.65,927.81z M196.57,178.41
	c-10.01,0-18.16,8.15-18.16,18.16v633.07c0,10.01,8.15,18.16,18.16,18.16h633.07c10.01,0,18.16-8.15,18.16-18.16V196.57
	c0-10.01-8.15-18.16-18.16-18.16H196.57z"/>
</svg>
