<?xml version="1.0" encoding="utf-8"?>
<!-- Generator: Adobe Illustrator 23.0.0, SVG Export Plug-In . SVG Version: 6.00 Build 0)  -->
<svg version="1.1" id="图层_1" xmlns="http://www.w3.org/2000/svg" xmlns:xlink="http://www.w3.org/1999/xlink" x="0px" y="0px"
	 viewBox="0 0 1024 1024" style="enable-background:new 0 0 1024 1024;" xml:space="preserve">
<path d="M828.54,97.3H195.46c-54.13,0-98.16,44.03-98.16,98.16v633.07c0,54.13,44.03,98.16,98.16,98.16h633.07
	c54.13,0,98.16-44.03,98.16-98.16V195.46C926.7,141.34,882.66,97.3,828.54,97.3z M816.2,370.07L497.28,689
	C487.27,699,474.13,704,460.99,704c-13.14,0-26.28-5-36.29-15.01l-216.9-216.9c-11.46-11.46-11.46-30.03,0-41.49
	c11.46-11.46,30.03-11.46,41.49,0l211.71,211.71l313.73-313.73c11.46-11.46,30.03-11.46,41.49,0
	C827.66,340.04,827.66,358.62,816.2,370.07z"/>
</svg>
