<?xml version="1.0" standalone="no"?><!DOCTYPE svg PUBLIC "-//W3C//DTD SVG 1.1//EN" "http://www.w3.org/Graphics/SVG/1.1/DTD/svg11.dtd"><svg t="1563613114168" class="icon" viewBox="0 0 1024 1024" version="1.1" xmlns="http://www.w3.org/2000/svg" p-id="1182" xmlns:xlink="http://www.w3.org/1999/xlink" width="200" height="200"><defs><style type="text/css"></style></defs><path d="M835.578 460.706a337.922 337.922 0 0 0-14.677-39.634l-36.948-3.889-44.818-81.842 11.692 77.944-204.604-15.589-31.177-46.767-26.336 46.767L287 413.286v-66.253l-38.943 70.15-51.528 3.818a337.851 337.851 0 0 0-14.702 39.705c-9.375 31.213-74.715 9.089-74.715 86.879 0 77.789 63.068 63.329 68.629 87.807C210.196 787.051 346 900.405 507 901.376v0.023c1 0 1.151-0.01 1.5-0.011 0.349 0.001 0.5 0.011 1.5 0.011v-0.023c162-0.971 296.951-114.325 331.407-265.984 5.561-24.478 68.948-10.018 68.948-87.807 0-77.79-65.401-55.666-74.777-86.879zM335.773 631.53c-31.209 0-56.51-25.3-56.51-56.51s25.3-56.51 56.51-56.51 56.51 25.3 56.51 56.51-25.3 56.51-56.51 56.51z m356.596 0c-31.209 0-56.51-25.3-56.51-56.51s25.3-56.51 56.51-56.51c31.209 0 56.51 25.3 56.51 56.51s-25.301 56.51-56.51 56.51z" fill="#F9CBBD" p-id="1183"></path><path d="M287 347.033v66.253l201.71-15.589 26.321-46.767 31.185 46.767 204.608 15.589-11.69-77.944 44.819 81.842 36.949 3.889 0.076 0.008s-6.058-43.082-39.328-90.032l177.477-36.336-133.49-173.928-90.87 160.376c-46.554-37.62-117.693-68.094-226.009-68.094-106.349 0-177.007 29.378-223.783 66.053L195.26 120.784 61.77 294.711l174.003 35.625c-33.956 47.226-40.299 90.744-40.299 90.744l1.069-0.079 51.514-3.818L287 347.033z" fill="#232C35" p-id="1184"></path><path d="M335.773 575.02m-56.51 0a56.51 56.51 0 1 0 113.02 0 56.51 56.51 0 1 0-113.02 0Z" fill="#232C35" p-id="1185"></path><path d="M692.369 575.02m-56.51 0a56.51 56.51 0 1 0 113.02 0 56.51 56.51 0 1 0-113.02 0Z" fill="#232C35" p-id="1186"></path></svg>