<?xml version="1.0" encoding="utf-8"?>
<!-- Generator: Adobe Illustrator 23.0.0, SVG Export Plug-In . SVG Version: 6.00 Build 0)  -->
<svg version="1.1" id="图层_1" xmlns="http://www.w3.org/2000/svg" xmlns:xlink="http://www.w3.org/1999/xlink" x="0px" y="0px"
	 viewBox="0 0 1024 1024" style="enable-background:new 0 0 1024 1024;" xml:space="preserve">
<path d="M512,957.25c-9.69,0-18.99-3.85-25.84-10.7L118.98,579.37c-15.18-15.18-14.98-39.83,1.16-53.98
	c14.36-12.58,36.21-12.03,49.91,1.67L492.89,849.9c10.56,10.56,27.67,10.56,38.23,0l322.22-322.22
	c15.18-15.18,39.83-14.98,53.98,1.16c12.58,14.36,12.03,36.21-1.67,49.91l-367.8,367.8C530.99,953.4,521.69,957.25,512,957.25z"/>
<g>
	<path d="M396.37,420.1c-12.72,0-25.22-6.05-32.98-17.31l-131-190.17c-8.43-12.24-9.38-28.14-2.47-41.3
		c6.91-13.16,20.55-21.39,35.41-21.39h493.33c22.09,0,40,17.91,40,40s-17.91,40-40,40h-417.2l87.82,127.48
		c12.53,18.19,7.94,43.1-10.25,55.63C412.1,417.81,404.19,420.1,396.37,420.1z"/>
	<path d="M396.34,688.12c-22.09,0-40-17.91-40-40V382.8c0-22.09,17.91-40,40-40s40,17.91,40,40v265.32
		C436.34,670.21,418.43,688.12,396.34,688.12z"/>
	<path d="M630.64,822.28c-22.09,0-40-17.91-40-40V420.8c0-22.09,17.91-40,40-40s40,17.91,40,40v361.48
		C670.64,804.37,652.73,822.28,630.64,822.28z"/>
	<circle cx="694.65" cy="304.84" r="47.65"/>
</g>
</svg>
