<?xml version="1.0" encoding="utf-8"?>
<!-- Generator: Adobe Illustrator 23.0.0, SVG Export Plug-In . SVG Version: 6.00 Build 0)  -->
<svg version="1.1" id="图层_1" xmlns="http://www.w3.org/2000/svg" xmlns:xlink="http://www.w3.org/1999/xlink" x="0px" y="0px"
	 viewBox="0 0 1024 1024" style="enable-background:new 0 0 1024 1024;" xml:space="preserve">
<path d="M823.44,662.35c-17.03-40.27-41.41-76.42-72.45-107.46c-31.04-31.04-67.2-55.42-107.46-72.45
	c-1.71-0.72-3.43-1.43-5.15-2.12c12.18-8.19,23.65-17.61,34.26-28.22c42.93-42.93,66.57-100.01,66.57-160.72
	s-23.64-117.79-66.57-160.73c-42.93-42.93-100.01-66.57-160.72-66.57s-117.79,23.64-160.73,66.57s-66.57,100.01-66.57,160.73
	s23.64,117.79,66.57,160.72c10.61,10.61,22.08,20.03,34.26,28.22c-1.72,0.69-3.44,1.4-5.15,2.12
	c-40.27,17.03-76.42,41.41-107.46,72.45c-31.04,31.04-55.42,67.2-72.45,107.46c-17.64,41.7-26.58,85.99-26.58,131.62
	c0,17.69,14.34,32.03,32.03,32.03s32.03-14.34,32.03-32.03c0-151.11,122.94-274.05,274.05-274.05
	c151.11,0,274.05,122.94,274.05,274.05c0,17.69,14.34,32.03,32.03,32.03c17.69,0,32.03-14.34,32.03-32.03
	C850.03,748.34,841.08,704.06,823.44,662.35z M348.67,291.38c0-90.01,73.23-163.24,163.24-163.24s163.24,73.23,163.24,163.24
	s-73.23,163.24-163.24,163.24S348.67,381.39,348.67,291.38z"/>
</svg>
