<?xml version="1.0" encoding="utf-8"?>
<!-- Generator: Adobe Illustrator 23.0.0, SVG Export Plug-In . SVG Version: 6.00 Build 0)  -->
<svg version="1.1" id="图层_1" xmlns="http://www.w3.org/2000/svg" xmlns:xlink="http://www.w3.org/1999/xlink" x="0px" y="0px"
	 viewBox="0 0 1024 1024" style="enable-background:new 0 0 1024 1024;" xml:space="preserve">
<g>
	<path d="M562,377.51H324.01v130.55c0,36.91,14.37,71.61,40.47,97.71c26.1,26.1,60.8,40.47,97.71,40.47h237.99V515.69
		c0-36.91-14.37-71.61-40.47-97.71C633.61,391.89,598.91,377.51,562,377.51z M561.09,590.12c0,10.93-8.86,19.8-19.8,19.8H384.91
		c-10.93,0-19.8-8.86-19.8-19.8v-9.33c0-10.93,8.86-19.8,19.8-19.8H541.3c10.93,0,19.8,8.86,19.8,19.8V590.12z M659.08,590.12
		c0,10.93-8.86,19.8-19.8,19.8h-9.4c-10.93,0-19.8-8.86-19.8-19.8v-9.33c0-10.93,8.86-19.8,19.8-19.8h9.4
		c10.93,0,19.8,8.86,19.8,19.8V590.12z M659.08,483.99c0,15.51-12.57,28.08-28.08,28.08H393.2c-15.51,0-28.08-12.57-28.08-28.08
		v-42.06c0-15.51,12.57-28.08,28.08-28.08H631c15.51,0,28.08,12.57,28.08,28.08V483.99z"/>
	<path d="M512.08,64.78C265,64.78,64.69,265.08,64.69,512.17S265,959.56,512.08,959.56s447.39-200.3,447.39-447.39
		S759.17,64.78,512.08,64.78z M780.18,726.24H462.19c-120.5,0-218.18-97.68-218.18-218.18V297.51H562
		c120.5,0,218.18,97.68,218.18,218.18V726.24z"/>
</g>
</svg>
