<?xml version="1.0" encoding="utf-8"?>
<!-- Generator: Adobe Illustrator 23.0.0, SVG Export Plug-In . SVG Version: 6.00 Build 0)  -->
<svg version="1.1" id="图层_1" xmlns="http://www.w3.org/2000/svg" xmlns:xlink="http://www.w3.org/1999/xlink" x="0px" y="0px"
	 viewBox="0 0 1024 1024" style="enable-background:new 0 0 1024 1024;" xml:space="preserve">
<path d="M800.28,840.28c-10.24,0-20.48-3.91-28.29-11.72L601.45,657.97c-15.6-15.6-15.62-40.88-0.05-56.51
	c46.42-46.6,71.98-108.48,71.98-174.25c0-136.15-110.77-246.92-246.92-246.92c-136.15,0-246.92,110.77-246.92,246.92
	s110.77,246.92,246.92,246.92c22.09,0,40,17.91,40,40s-17.91,40-40,40c-44.12,0-86.93-8.65-127.26-25.71
	c-38.93-16.47-73.89-40.03-103.9-70.04c-30.01-30.01-53.58-64.97-70.05-103.9c-17.06-40.33-25.71-83.15-25.71-127.27
	c0-44.12,8.65-86.93,25.71-127.26c16.47-38.93,40.03-73.89,70.05-103.9c30.01-30.01,64.97-53.58,103.9-70.05
	c40.33-17.06,83.15-25.71,127.26-25.71c44.12,0,86.93,8.65,127.26,25.71c38.93,16.47,73.89,40.03,103.9,70.05
	s53.58,64.97,70.04,103.9c17.06,40.33,25.71,83.15,25.71,127.26c0,73.63-24.2,143.59-68.82,200.74L828.56,772
	c15.62,15.62,15.62,40.95-0.01,56.57C820.75,836.37,810.51,840.28,800.28,840.28z"/>
</svg>
