<?xml version="1.0" encoding="utf-8"?>
<!-- Generator: Adobe Illustrator 23.0.0, SVG Export Plug-In . SVG Version: 6.00 Build 0)  -->
<svg version="1.1" id="图层_1" xmlns="http://www.w3.org/2000/svg" xmlns:xlink="http://www.w3.org/1999/xlink" x="0px" y="0px"
	 viewBox="0 0 1024 1024" style="enable-background:new 0 0 1024 1024;" xml:space="preserve">
<path d="M511.26,67.18C265.6,67.58,66.77,267.07,67.18,512.74c0.41,245.67,199.89,444.49,445.56,444.09
	c245.67-0.41,444.49-199.89,444.09-445.56C956.42,265.6,756.93,66.77,511.26,67.18z M796.26,534.9
	c0.03,21.01-16.97,38.07-37.98,38.11c-21.01,0.03-38.07-16.97-38.11-37.98l-0.3-182.65c-0.04-26.93-21.99-48.81-48.92-48.76
	l-318.56,0.53c-26.93,0.04-48.81,21.99-48.76,48.92l0.53,318.56c0.04,26.93,21.99,48.81,48.92,48.76l318.56-0.53
	c26.93-0.04,48.81-21.99,48.76-48.92l-0.06-33.61c-0.03-21.01,16.97-38.07,37.98-38.11c21.01-0.03,38.07,16.97,38.11,37.98
	l0.06,33.61c0.11,68.89-55.84,125.03-124.73,125.14l-318.56,0.53c-68.89,0.11-125.03-55.84-125.14-124.73l-0.53-318.56
	c-0.11-68.89,55.84-125.03,124.73-125.14l318.56-0.53c68.89-0.11,125.03,55.84,125.14,124.73L796.26,534.9z M646.9,448.62
	c17.09-0.03,30.96,13.8,30.99,30.89s-13.8,30.96-30.89,30.99l-99.08,0.16c-8.22,0.01-16.1-3.24-21.92-9.05
	c-5.81-5.81-9.08-13.69-9.08-21.9l0.03-98.89c0.01-17.07,13.83-30.9,30.89-30.93c0.02,0,0.04,0,0.06,0
	c17.09,0.01,30.94,13.86,30.93,30.95l-0.01,23.99l46.24-46.4c12.06-12.1,31.65-12.14,43.76-0.07c12.1,12.06,12.14,31.65,0.07,43.76
	l-46.38,46.54L646.9,448.62z M402.9,669.38c-12.06,12.1-31.65,12.14-43.76,0.07c-12.1-12.06-12.14-31.65-0.07-43.76l46.38-46.54
	l-24.37,0.04c-17.09,0.03-30.96-13.8-30.99-30.89c-0.03-17.09,13.8-30.96,30.89-30.99l99.08-0.16c8.22-0.01,16.1,3.24,21.92,9.05
	c5.81,5.81,9.08,13.69,9.08,21.9l-0.03,98.89c-0.01,17.07-13.83,30.9-30.89,30.93c-0.02,0-0.04,0-0.06,0
	c-17.09-0.01-30.94-13.86-30.93-30.95l0.01-23.99L402.9,669.38z"/>
</svg>
