<?xml version="1.0" encoding="utf-8"?>
<!-- Generator: Adobe Illustrator 23.0.0, SVG Export Plug-In . SVG Version: 6.00 Build 0)  -->
<svg version="1.1" id="图层_1" xmlns="http://www.w3.org/2000/svg" xmlns:xlink="http://www.w3.org/1999/xlink" x="0px" y="0px"
	 viewBox="0 0 1024 1024" style="enable-background:new 0 0 1024 1024;" xml:space="preserve">
<style type="text/css">
	.st0{stroke:#FFFFFF;stroke-miterlimit:10;}
</style>
<path class="st0" d="M697.43,303.25l194.91,28.48c48.61,7.1,67.97,66.86,32.77,101.12L783.94,570.24
	c-13.98,13.61-20.37,33.22-17.09,52.45L800,816.85c8.27,48.42-42.58,85.31-86.05,62.41l-174.28-91.8
	c-17.26-9.09-37.89-9.11-55.16-0.04l-174.43,91.52c-43.5,22.82-94.29-14.14-85.95-62.55l33.45-194.12
	c3.31-19.22-3.05-38.85-17-52.47L99.64,432.2c-35.15-34.32-15.69-94.04,32.93-101.07l194.95-28.17c19.31-2.79,36-14.9,44.65-32.39
	L459.49,94c21.78-44.03,84.59-43.98,106.3,0.08l87.04,176.71C661.45,288.29,678.12,300.43,697.43,303.25z"/>
</svg>
