<?xml version="1.0" encoding="utf-8"?>
<!-- Generator: Adobe Illustrator 23.0.0, SVG Export Plug-In . SVG Version: 6.00 Build 0)  -->
<svg version="1.1" id="图层_1" xmlns="http://www.w3.org/2000/svg" xmlns:xlink="http://www.w3.org/1999/xlink" x="0px" y="0px"
	 viewBox="0 0 1024 1024" style="enable-background:new 0 0 1024 1024;" xml:space="preserve">
<path d="M97.04,509.24v-1.2c-0.4-0.8-0.21-7.58,0.6-20.36c0-2,0.39-5.78,1.2-11.38c0.39-2.79,0.6-6.38,0.6-10.78
	c0-5.99-2-9.18-5.99-9.58c2-2,4.39-3.79,7.18-5.39c1.2-0.8,3.39-2.79,6.59-5.99c1.2-2,1.8-3.79,1.8-5.39c0-3.59-1.8-6.19-5.39-7.78
	c-3.2-2-6.98-1.2-11.38,2.39c-2.39,0.4-6.39,4.79-11.97,13.17l-7.18,10.18c-2.39,3.59-4.4,7.58-5.99,11.97l-1.2,4.79
	c0,1.6,0.2,2.6,0.6,2.99l1.2,1.2l1.2,0.6c0.8,0.8,1.4,1,1.8,0.6c2-0.8,3.79-2.39,5.39-4.79l7.78-8.38l-0.6,1.2
	c-0.4,2.79-0.4,6.19,0,10.18c0.39,2.79,0.6,5.99,0.6,9.58c0,4.79,1.59,13.17,4.79,25.15c0.39,1.6,1.2,2.99,2.39,4.19
	c0.8,0.8,1.4,1.2,1.8,1.2c0.8,0,1.4-0.2,1.8-0.6l1.2-1.2L97.04,509.24z"/>
<path d="M153.32,539.18c-2.39-0.8-5.19-1.2-8.38-1.2c-2.79,0-6.59,0.4-11.38,1.2l-8.98,2.39c-3.59,1.6-6.39,2.39-8.38,2.39
	c-1.6,0-3.39-0.6-5.39-1.8c-2.39-1.2-3.59-2.59-3.59-4.19c0-1.59,0.8-3.79,2.39-6.59l2.39-5.99c1.2-3.19,1.2-5.78,0-7.78
	c-1.6-1.59-3.59-2.39-5.99-2.39c-3.59,0-6.39,1.8-8.38,5.39c-1.2,2.79-1.8,6.19-1.8,10.18v5.99c1.2,7.58,5.78,12.57,13.77,14.97
	l10.78,1.8l3.59-0.6h5.39c4.79,0,10.78-0.4,17.96-1.2l3.59-0.6c0.39,0,1.8-0.4,4.19-1.2c1.59-0.4,2.99-1.6,4.19-3.59
	c0.39-0.8,0-2.2-1.2-4.19C157.31,540.97,155.72,539.98,153.32,539.18z"/>
<path d="M90.46,520.62c-3.2-2-5.79-1.8-7.78,0.6l-4.19,3.59c-1.6,1.2-2.99,2.6-4.19,4.19l-2.39,3.59c-1.2,1.6-1.8,3.2-1.8,4.79
	c0,2.79,0.99,4.79,2.99,5.99c1.2,1.2,2.99,1.8,5.39,1.8c1.59,0,3.19-0.4,4.79-1.2c4.39-4.39,6.79-7.18,7.18-8.38
	c1.59-2.79,2.39-6.38,2.39-10.78c0-1.2-0.21-2-0.6-2.39L90.46,520.62z"/>
<path d="M172.48,446.98h-2.39l-7.18,1.8l-8.98,1.8l-9.58,1.2l0.6-1.2c1.59-2.79,2.39-5.39,2.39-7.78l-1.2-5.99
	c-0.8-3.19-2.79-4.79-5.99-4.79l-2.39,0.6c-0.8,0-1.4,0.21-1.8,0.6l-2.99,2.39c-1.2,1.2-2.39,3.39-3.59,6.59l-2.99,8.98
	c-3.2,7.18-4.79,15.57-4.79,25.15c0,4.4,1.4,6.59,4.19,6.59l2.99-1.2l1.8-3.59l0.6-1.2c1.2,2,2.79,3.59,4.79,4.79
	c0.8,0.4,4.79,4.19,11.97,11.38c-3.99,4.79-7.58,7.18-10.78,7.18c-1.6,0.4-3.59,0.4-5.99,0h-4.79c-1.6,0-2.6,0.21-2.99,0.6
	c-1.2,0.4-1.8,1.2-1.8,2.39c0,0.4,0.8,1.4,2.39,2.99c2.79,2,6.59,2.99,11.38,2.99c2.79,0,4.58-0.2,5.39-0.6
	c7.18-0.8,12.57-2.99,16.16-6.59c5.99,5.99,9.37,9.19,10.18,9.58c1.2,1.6,2.79,2.39,4.79,2.39c1.2,0,2.59-0.6,4.19-1.8
	c0.8-0.39,1.59-1.4,2.39-2.99c2-3.19,1.2-6.98-2.39-11.38c-2.79-2.79-5.79-5.39-8.98-7.78l1.2-1.2l2.99-7.18
	c1.2-3.19,1.8-5.99,1.8-8.38s-0.21-3.99-0.6-4.79c0-1.59-0.6-2.99-1.8-4.19l4.19-0.6l2.99-2.39l1.8-1.2l1.8-2.39
	c0.8-0.8,1.2-1.8,1.2-2.99s-0.6-2.39-1.8-3.59C179.26,448.38,176.46,446.98,172.48,446.98z M158.11,468.53
	c-1.2,2-2.79,5.99-4.79,11.97l-14.97-7.18l-4.79-0.6h-0.6l4.79-8.38l1.8-4.19c5.59,2.79,12.17,4.19,19.76,4.19h1.8
	C159.91,465.54,158.91,466.94,158.11,468.53z"/>
<path d="M177.87,531.99c-1.2-1.59-3.99-3.99-8.38-7.18c-1.6-1.59-3.39-2.39-5.39-2.39c-2.39,0-3.59,1.2-3.59,3.59
	c0,0.8,0.2,1.4,0.6,1.8c0,0.8,0.6,2.79,1.8,5.99l4.19,9.58c1.59,2.79,3.79,4.19,6.59,4.19h1.8l3.59-1.2
	c1.59-0.4,2.79-2.39,3.59-5.99c0-1.59-0.6-3.19-1.8-4.79L177.87,531.99z"/>
<path d="M128.77,529.6c3.99,2,7.18,2.99,9.58,2.99h0.6c2.79,0,4.79-0.99,5.99-2.99c2-2,2-4.79,0-8.38c-2-2.39-5.59-4.58-10.78-6.59
	l-5.39-1.2c-1.2,0-2,0.21-2.39,0.6l-1.8,2.39l-1.2,2.99c0,0.8,0.2,1.4,0.6,1.8c0,1.2,0.2,2.2,0.6,2.99L128.77,529.6z"/>
<path d="M103.03,469.73l-0.6,5.39l0.6,9.58c0,1.6,1.2,7.78,3.59,18.56c0.39,1.6,1.2,2.6,2.39,2.99l2.39,1.2c0.8,0,1.4-0.2,1.8-0.6
	c0.39,0,0.99-0.39,1.8-1.2c1.2-2,1.8-3.79,1.8-5.39l1.2-14.97c0-3.98,0.2-6.98,0.6-8.98c0.39-1.59,0.6-3.99,0.6-7.18
	c0-2.39-0.8-4.19-2.39-5.39c-2-1.2-3.8-1.8-5.39-1.8h-0.6C106.82,462.35,104.23,464.94,103.03,469.73z"/>
<path d="M225.76,467.93c-0.4-1.2-1-2.19-1.8-2.99c-1.2-0.8-2.2-0.8-2.99,0c-0.8,0.8-1.6,2.79-2.39,5.99l-2.39,10.18
	c-1.2,3.99-1.8,6.98-1.8,8.98l-1.8,13.77v0.6c0,6.79,1.2,11.38,3.59,13.77c2.79,2.79,5.18,1.2,7.18-4.79
	c2.39-9.18,3.59-17.96,3.59-26.34c0-8.77-0.21-13.56-0.6-14.37C226.36,470.73,226.16,469.13,225.76,467.93z"/>
<path d="M238.34,433.21l-2.39,1.2c-3.59,1.6-5.39,11.97-5.39,31.13l0.6,26.94c0,3.2,0.39,10.78,1.2,22.75l2.39,25.15l1.8,7.18
	c0.39,1.59,0.99,2.39,1.8,2.39h1.2c0.8,0,1.4-0.21,1.8-0.6c0.39,0,0.8-1,1.2-2.99c0.39-0.4,0.6-2.39,0.6-5.99s0.2-5.99,0.6-7.18
	l0.6-38.91c0.39-7.58,0.6-23.14,0.6-46.7c0-4.79-0.6-8.38-1.8-10.78C241.12,434.41,239.53,433.21,238.34,433.21z"/>
<path d="M310.18,455.96l0.6,0.6c0.39,0.4,1.2,0.6,2.39,0.6c0.39,0.4,1.4,0.21,2.99-0.6l9.58-5.99c3.59-3.19,5.39-6.19,5.39-8.98
	c0-1.59-1.2-3.59-3.59-5.99c-2-1.59-4.59-2.39-7.78-2.39c-2,0-3.59,0.6-4.79,1.8l-1.8,3.59l-1.8,4.19l-3.59,7.78v1.2
	c0,1.2,0.2,2,0.6,2.39L310.18,455.96z"/>
<path d="M265.88,493.08c0-2-1-5.59-2.99-10.78c-0.4-0.8-2.39-4.58-5.99-11.38c-2.39-2.39-4.4-3.59-5.99-3.59l-2.39,1.2
	c-0.8,0.8-1.2,2.6-1.2,5.39v1.2l0.6,5.99c0.8,5.59,1.59,9.78,2.39,12.57c0.8,4.4,3.19,6.59,7.18,6.59
	C263.08,500.26,265.88,497.87,265.88,493.08z"/>
<path d="M337.72,537.98c-0.8-0.39-2.39-0.6-4.79-0.6l-7.18,1.2c-4.4,0.8-7.39,0.6-8.98-0.6c-1.6-0.39-2.79-2-3.59-4.79
	c-0.8-1.59-1.2-4.58-1.2-8.98c0-3.99,0.2-6.38,0.6-7.18c0-1.2,0.2-2.19,0.6-2.99c0-2-0.21-3.59-0.6-4.79
	c-0.8-1.59-1.6-2.59-2.39-2.99c-1.6-0.8-2.99-1.2-4.19-1.2c-1.6,0-2.79,0.6-3.59,1.8c-1.6,1.6-2.39,3.2-2.39,4.79l-1.2,4.19
	c-0.4,1.2-0.6,3.39-0.6,6.59c0,2.39,0.2,3.99,0.6,4.79c0,3.59,0.2,5.99,0.6,7.18c0,1.2,0.39,3.39,1.2,6.59
	c1.2,3.99,3.59,6.79,7.18,8.38c3.19,1.59,7.58,2.39,13.17,2.39h4.19h4.79c1.59,0,3.59-0.4,5.99-1.2c2.39-0.8,3.99-1.8,4.79-2.99
	c1.2-1.6,1.4-3.59,0.6-5.99C340.91,539.58,339.71,538.38,337.72,537.98z"/>
<path d="M299.4,505.05c4.79-0.39,9.78-1.4,14.97-2.99c2.79-0.8,6.59-2.99,11.38-6.59c5.99-4.79,8.98-9.97,8.98-15.57l-1.2-5.39
	c-1.6-3.19-3.59-5.59-5.99-7.18c-1.6-1.2-4.4-2.39-8.38-3.59l-10.78-2.39l-7.78-0.6l-16.76-0.6h-1.8c-3.2,0-6.79,0.4-10.78,1.2
	c-3.2,1.2-4.79,2.6-4.79,4.19c0.39,3.59,3.19,5.79,8.38,6.59c6.38,0,12.17,0.21,17.36,0.6c7.98,0.8,13.17,1.6,15.57,2.39
	c5.59,2,8.38,4.4,8.38,7.18v1.8c0,1.2-2.6,3.2-7.78,5.99c-2.79,1.6-5.79,2.39-8.98,2.39c-2.79,0-5.39-0.6-7.78-1.8
	c-6.39-2.79-10.78-7.38-13.17-13.77c-0.8-2-1.8-3.19-2.99-3.59c-2.39-0.8-3.8-1.2-4.19-1.2l-1.2,0.6l-2.99,0.6
	c-1.6,0.4-2.39,2.2-2.39,5.39c0,2.39,0.8,5,2.39,7.78l3.59,5.39c2.39,3.59,5.39,6.79,8.98,9.58c0.8,0.8,1.4,1.2,1.8,1.2l-0.6,0.6
	c-3.59,0.4-5.39,2.99-5.39,7.78l-1.8,17.96c0,2.39-0.6,5.19-1.8,8.38c-2,3.2-3.59,5.19-4.79,5.99l-5.39,1.8
	c-2.79,0.39-4.19,1.8-4.19,4.19c0,1.59,2.39,2.39,7.18,2.39c3.99,0,6.79-0.6,8.38-1.8c5.18-2.39,9.58-6.59,13.17-12.57
	c1.59-2.79,2.99-7.58,4.19-14.37l0.6-6.59c0-3.19-0.8-6.19-2.39-8.98l-2.39-2.99c1.2,0.4,3.99,0.6,8.38,0.6H299.4z"/>
<path d="M270.07,448.18l1.8,2.39c2.39,2.39,4.19,3.59,5.39,3.59c1.2,0.4,2.99,0.21,5.39-0.6l3.59-0.6c2-1.2,2.99-3.39,2.99-6.59
	c-0.4-3.59-1.8-6.59-4.19-8.98c-2-1.59-4.59-2.39-7.78-2.39h-2.39c-3.2,0.4-5.19,1.8-5.99,4.19c-0.4,0.4-0.6,1.6-0.6,3.59
	c0,2,0.2,3.2,0.6,3.59C268.87,446.78,269.26,447.38,270.07,448.18z"/>
<path d="M470.03,465.54v1.8c0,1.2,0.2,2,0.6,2.39c0,0.4,0.39,1,1.2,1.8c0.8,1.2,2.19,1.8,4.19,1.8c1.59,0,3.79-1.4,6.59-4.19
	c2.39-3.19,4.19-7.18,5.39-11.97c1.2-3.19,0.8-6.38-1.2-9.58c-1.6-1.2-3.99-1.2-7.18,0c-2.79,1.6-5.39,4.19-7.78,7.78
	c-1.6,2.79-2.39,5.39-2.39,7.78c0,0.8,0.2,1.4,0.6,1.8V465.54z"/>
<path d="M476.02,484.1c-0.8-1.59-2-2-3.59-1.2c-1.2,0.4-1.8,2.6-1.8,6.59v2.99c0.8,6.79,1.59,11.18,2.39,13.17
	c0.8,3.59,1.4,5.59,1.8,5.99c2,5.19,3.99,8.98,5.99,11.38c1.2,1.2,2.19,1.8,2.99,1.8c0.39,0.4,0.99,0.6,1.8,0.6l2.99-1.2
	c1.2-0.8,2.39-2,3.59-3.59c1.2-2,1.8-5.18,1.8-9.58c0-1.59-0.4-3.59-1.2-5.99c-0.4-1.2-1-2.19-1.8-2.99l-7.78-8.98L476.02,484.1z"/>
<path d="M441.89,435.01l-2.39,0.6c-0.8,0.8-1.6,2.99-2.39,6.59c-0.4,2.39-0.6,6.19-0.6,11.38l0.6,23.95l1.2,20.95
	c0,12.78-1.4,22.15-4.19,28.14c-0.4,1.2-1.4,2.6-2.99,4.19l-2.39,2.99c-1.6,2.79-2.39,5.39-2.39,7.78s0.6,4.19,1.8,5.39
	c2,2.79,5.39,0.8,10.18-5.99c4.39-4.39,7.58-12.57,9.58-24.55c1.2-8.38,1.8-18.76,1.8-31.13c0-18.35-1-32.53-2.99-42.51
	C445.48,437.61,443.89,435.01,441.89,435.01z"/>
<path d="M489.79,533.19c-2.39-2-5.99-1.4-10.78,1.8c-2.39,1.2-4.19,1.8-5.39,1.8c-2.39,0-4.4-2-5.99-5.99
	c-2.79-5.99-4.19-15.77-4.19-29.34c0-9.58,0.2-16.16,0.6-19.76l1.2-13.17c1.2-9.18,1.8-17.16,1.8-23.95c0-9.58-1.6-14.37-4.79-14.37
	c-1.2,0-2.2,0.6-2.99,1.8c-0.8,1.2-1.6,4.59-2.39,10.18l-1.8,22.75c-2,22.36-2.6,40.71-1.8,55.08c0,9.19,1.59,17.57,4.79,25.15
	c3.59,5.99,8.58,8.98,14.97,8.98l8.38-1.2c4.79-1.6,8.77-4.59,11.97-8.98c1.2-1.59,1.4-3.79,0.6-6.59
	C492.38,534.99,490.98,533.59,489.79,533.19z"/>
<path d="M434.11,506.25l2.99-10.18c0.39-1.2,0.6-2.99,0.6-5.39c0-2-0.21-3.39-0.6-4.19l-2.39-1.2c-0.4,0-1,0.4-1.8,1.2l-6.59,8.98
	l-3.59,3.59c-2,2-3.2,3.39-3.59,4.19l-2.39,3.59c-1.6,2-2.39,6.19-2.39,12.57c0,2.79,0.6,4.59,1.8,5.39c0.8,1.2,1.4,1.8,1.8,1.8
	c0.39,0.4,0.99,0.6,1.8,0.6c0.8,0.8,1.59,0.8,2.39,0c3.59-3.59,6.19-6.98,7.78-10.18C431.51,514.63,432.91,511.04,434.11,506.25z"/>
<path d="M590.47,462.47c1.85,0.53,3.18,0.66,3.98,0.4c1.59-0.53,2.39-1.59,2.39-3.18c-0.27-1.85-1.33-3.44-3.18-4.77
	c-1.86-1.85-4.11-2.78-6.76-2.78l-1.59,0.4c-2.13,0.53-3.18,1.46-3.18,2.78l0.4,1.59l3.98,2.78
	C588.88,461.54,590.2,462.47,590.47,462.47z M587.26,455.46c1.6,0.08,2.89,0.66,4.04,1.81l0.19,0.19l0.22,0.16
	c1.11,0.8,1.54,1.51,1.72,2.07c-0.22,0-0.78-0.05-1.84-0.34c-0.31-0.2-1.13-0.76-3.07-2.27l-0.14-0.1l-1.88-1.32L587.26,455.46z"/>
<path d="M630.48,530.2l-5.99-2.39h-1.2l-1.8,1.8c-0.4,1.2-0.4,2.6,0,4.19v4.79l-10.18-1.2c-1.6-0.39-8.78-0.6-21.55-0.6v-1.8
	l1.2-4.79c12.77-1.2,23.74-3.59,32.93-7.18c8.38-3.19,12.57-7.18,12.57-11.97c0-1.2-0.6-2.39-1.8-3.59
	c-3.2-3.19-5.99-4.99-8.38-5.39c-6.79-1.2-11.38-2-13.77-2.39c-9.58-0.8-16.37-1.2-20.36-1.2c0-2.39-0.21-3.79-0.6-4.19
	c-0.4-3.99-2.2-5.99-5.39-5.99l-2.99,0.6c-2,0.8-3.2,1.6-3.59,2.39c-0.4,0.8-0.8,1.7-1.2,2.69c-0.4,1-0.8,2.3-1.2,3.89h-19.76
	l-16.76,1.8c-4.79,0.8-6.79,1.8-5.99,2.99c0.39,2.79,4.58,4.19,12.57,4.19l29.34,0.6v8.38c0,2,0.2,3.39,0.6,4.19
	c-2.79,0-4.59-0.2-5.39-0.6c-8.78-2-15.17-4.99-19.16-8.98c-2-2-5.39-2.99-10.18-2.99h-2.39c-3.59,1.2-5.39,2.79-5.39,4.79
	c0,1.6,1.59,3.99,4.79,7.18l2.99,2.39c0.8,1.2,2.19,2.2,4.19,2.99c1.59,1.2,4.58,2.39,8.98,3.59c3.19,1.6,10.78,2.39,22.75,2.39
	l1.2,5.39h-2.39l-28.74,0.6l-8.38,0.6c-4.4,0.4-7.18,1.4-8.38,2.99c-1.2,1.2-1.6,2.79-1.2,4.79c0.8,2.39,2,3.79,3.59,4.19
	c3.99,0.8,6.98,1.2,8.98,1.2l19.16-1.2l29.34-1.8c6.79-0.4,14.37-0.6,22.75-0.6l7.18-0.6c1.59,3.99,4.58,5.99,8.98,5.99
	c5.99,0,8.98,0,8.98,0s0-2.2,0-6.59c0-2-1.2-5.39-3.59-10.18C634.67,533.59,632.87,531.79,630.48,530.2z M592.16,517.03l0.6-8.38
	c13.97,0.8,19.96,2.39,17.96,4.79c-1.2,2-3.2,3.2-5.99,3.59l-9.58,1.8c-0.4,0.4-1.6,0.6-3.59,0.6L592.16,517.03z"/>
<path d="M724.47,444.59l4.79,4.19c0.39,0.4,0.99,0.6,1.8,0.6l1.2,0.6c2.79,0.4,5.59,0.4,8.38,0c2.79-1.59,4.79-3.39,5.99-5.39
	c0.8-3.99,0.39-6.98-1.2-8.98c-1.2-1.59-3.2-2.99-5.99-4.19c-3.99-0.8-6.79-1.2-8.38-1.2c-2.39,0-4.19,0.6-5.39,1.8
	s-2,2.79-2.39,4.79c-0.4,0.4-0.6,1.6-0.6,3.59c0,0.8,0.2,1.4,0.6,1.8L724.47,444.59z"/>
<path d="M877.14,517.03c1.59-1.2,2.39-2.59,2.39-4.19l-0.6-1.8c-0.4-2.39-3.2-3.59-8.38-3.59h-1.8l-9.58,1.2v-4.19l0.6-17.96
	l7.18-2.39c4.79-1.2,7.18-3.19,7.18-5.99v-1.2c-0.4-1.59-1.8-2.79-4.19-3.59c-2.39,0-3.99-0.2-4.79-0.6c-0.4-0.39-1.8-0.6-4.19-0.6
	v-11.97c0-5.59-2.6-8.38-7.78-8.38h-1.2c-3.59,0.4-6.19,4.79-7.78,13.17v5.99v2.39l-7.18,0.6l-3.59,1.2c-1.6,0.4-2.79,1.8-3.59,4.19
	c-0.8,4.4,0,7.78,2.39,10.18c1.2,1.2,2.79,1.8,4.79,1.8h1.8l5.39-1.2h1.2c0.39,6.79,1.4,13.17,2.99,19.16l0.6,1.2l-10.78,2.39
	l-4.19,1.2c-1.6,1.2-2.79,2.99-3.59,5.39c-1.2,4.4-0.21,7.78,2.99,10.18c1.59,1.6,3.99,1.8,7.18,0.6l5.99-1.8l13.17-4.79l11.97-4.19
	C874.15,518.62,875.94,517.83,877.14,517.03z"/>
<path d="M943.59,478.11c-5.59-4.39-11.18-6.98-16.76-7.78c-3.2,0-4.79-0.8-4.79-2.39c0-2,1.4-4.39,4.19-7.18l5.39-5.99
	c2-3.99,2.99-6.79,2.99-8.38v-2.99c-0.8-4.39-3.2-7.78-7.18-10.18c-4.4-2-9.19-3.19-14.37-3.59c-9.19,0-15.77,0.21-19.76,0.6
	c-4.4,0.8-7.58,1.8-9.58,2.99c-2,1.2-2.99,3.2-2.99,5.99c0,2,0.6,3.59,1.8,4.79c2,2,4.99,2.99,8.98,2.99c0.8,0,2.79-0.39,5.99-1.2
	c0.8-0.39,2.99-0.6,6.59-0.6c7.18,0,10.78,1.6,10.78,4.79c0,1.2-1,3.2-2.99,5.99l-3.59,5.39c-2,3.2-5.59,5.99-10.78,8.38
	c-0.8,0.4-2.39,0.6-4.79,0.6h-2.39l-4.79,1.2c-2.39,1.6-3.59,3.39-3.59,5.39c0,2,0.2,3.2,0.6,3.59c1.2,3.59,4.58,5.39,10.18,5.39
	l0.6,7.78c0,3.59-1.6,8.98-4.79,16.16c-2.79,5.19-5.99,9.19-9.58,11.97l-3.59,2.99c-2.39,1.6-3.59,3.2-3.59,4.79
	c0,1.2,0.2,2,0.6,2.39c0.8,1.2,2.39,1.8,4.79,1.8c2.39,0,3.99-0.2,4.79-0.6c0.8-0.39,1.8-0.6,2.99-0.6c2-0.8,4.99-2.59,8.98-5.39
	l7.18-8.98c3.59-5.59,5.39-13.17,5.39-22.75c0-4.79-0.6-7.98-1.8-9.58c1.59-0.39,4.79-0.6,9.58-0.6h0.6h0.6v7.18
	c-0.8,5.19-2,10.78-3.59,16.76c-2,7.18-3.8,12.18-5.39,14.97c-3.99,6.39-7.18,10.18-9.58,11.38l-3.59,2.99
	c-2.39,1.6-3.59,3.39-3.59,5.39c0,1.2,0.2,2,0.6,2.39c2,1.2,3.59,1.8,4.79,1.8c2.79,0,5.39-0.6,7.78-1.8c4.79-2,7.78-3.59,8.98-4.79
	l7.18-8.98c1.2-2.39,3.19-7.78,5.99-16.16c2.39-7.98,3.59-13.77,3.59-17.36l0.6-4.79c0-2-0.4-4.19-1.2-6.59l6.59,4.19
	c2.39,3.99,3.59,8.78,3.59,14.37c0,5.59-1,11.97-2.99,19.16c-2,7.18-3.8,10.98-5.39,11.38c-0.8,0.8-2.39,1-4.79,0.6
	c-3.2,0-5.19,0.21-5.99,0.6c-1.2,0.4-1.8,2.2-1.8,5.39c0,2.79,2,5.59,5.99,8.38c2,1.2,4.79,1.2,8.38,0c3.19-0.4,6.19-2.39,8.98-5.99
	c3.99-4.79,6.98-10.57,8.98-17.36c2-7.18,2.99-18.16,2.99-32.93C952.57,488.69,949.58,482.9,943.59,478.11z"/>
<rect x="729.59" y="497.49" width="11.18" height="3.53"/>
<rect x="733.88" y="501.07" width="2.58" height="38.6"/>
<path d="M543.67,494.88c6.38,0,15.57-2.59,27.54-7.78c6.38-2.79,12.17-4.99,17.36-6.59l13.77,6.59l14.37,7.18
	c4.79,1.6,7.98,2.39,9.58,2.39c3.99,0,6.59-1.4,7.78-4.19c1.2-3.59-2.39-7.58-10.78-11.97l-18.56-7.78
	c8.38-4.39,14.16-8.18,17.36-11.38c4.79-4.39,7.18-8.38,7.18-11.97c0-3.19-1.6-5.78-4.79-7.78c-5.99-4.79-17.16-7.18-33.53-7.18
	c-15.97,0-29.14,1.2-39.51,3.59c-3.99,1.2-5.99,2.99-5.99,5.39c0,2,2.39,2.99,7.18,2.99l6.1-0.45c0.06,0.38,0.24,0.74,0.52,1.01
	c0.35,0.34,0.81,0.53,1.29,0.52c0.48-0.01,0.94-0.21,1.28-0.56c0.32-0.33,0.5-0.78,0.51-1.24l4.08-0.3l0.02,1.57
	c0.01,0.49,0.21,0.95,0.55,1.29c0.35,0.34,0.81,0.53,1.29,0.52c0.48-0.01,0.94-0.21,1.28-0.56c0.34-0.35,0.52-0.82,0.51-1.31
	l-0.03-1.75l4.08-0.19l0.04,2.45c0.01,0.49,0.21,0.95,0.55,1.29c0.35,0.34,0.81,0.53,1.29,0.52c0.48-0.01,0.94-0.21,1.28-0.56
	c0.34-0.35,0.52-0.82,0.51-1.31l-0.04-2.57l3.61-0.17c0.16,0,0.31,0,0.47,0l0.04,2.79c0.01,0.49,0.21,0.95,0.55,1.29
	c0.35,0.34,0.81,0.53,1.29,0.52c0.48-0.01,0.94-0.21,1.28-0.56c0.34-0.35,0.52-0.82,0.51-1.31l-0.04-2.71
	c1.43,0.02,2.78,0.06,4.06,0.1l0.05,3.55c0.01,0.49,0.21,0.95,0.55,1.29c0.35,0.34,0.81,0.53,1.29,0.52s0.94-0.21,1.28-0.56
	c0.34-0.35,0.52-0.82,0.51-1.31l-0.05-3.33c1.48,0.09,2.85,0.19,4.1,0.32l0.06,3.94c0.01,0.49,0.21,0.95,0.55,1.29
	c0.35,0.34,0.81,0.53,1.29,0.52c0.48-0.01,0.94-0.21,1.28-0.56c0.34-0.35,0.52-0.82,0.51-1.31l-0.05-3.42
	c1.24,0.21,2.31,0.44,3.2,0.71c3.59,1.6,5.78,3.2,6.59,4.79c0.39,1.2,0.39,2.6,0,4.19c-0.4,1.6-1.2,2.99-2.39,4.19
	c-2,2-3.59,3.2-4.79,3.59c-1.2,0.8-4.4,2.2-9.58,4.19l-1.2,0.6l-2.99-1.2c-0.8-0.39-6.79-2.59-17.96-6.59
	c-2.39-0.8-10.18-2.99-23.35-6.59c-3.99-0.8-6.98-1.2-8.98-1.2h-1.8l-1.2,0.6v0.6c0,0.8,0.6,1.6,1.8,2.39l5.99,3.59l5.39,2.39
	l23.95,11.38l-28.14,5.99c-7.99,3.2-11.97,6.39-11.97,9.58l0.6,2.39C535.68,493.68,538.88,494.88,543.67,494.88z"/>
<path d="M790.33,460.15c-1.2-0.8-3.8-1.59-7.78-2.39l-19.16-1.8c-19.96-2-36.92-2.99-50.89-2.99h-12.57c-3.59,0-7.58,0.6-11.97,1.8
	c-3.99,1.2-5.99,3.59-5.99,7.18c0,2.39,2.19,4.79,6.59,7.18l9.58,0.6c6.38,0,11.17-0.2,14.37-0.6c2.79-0.39,6.59-0.6,11.38-0.6h2.99
	c-0.8,3.99-1.2,6.98-1.2,8.98v0.6l-20.95,1.8c-5.59,0.8-9.38,1.6-11.38,2.39c-3.2,1.2-4.79,2.99-4.79,5.39c0,1.2,1.59,2.2,4.79,2.99
	c-3.59,2.79-5.39,6.19-5.39,10.18v0.6l2.39,10.78l1.8,8.98c0.8,3.2,3.19,9.58,7.18,19.16c1.2,2,2.39,3.39,3.59,4.19l2.39,1.2
	l1.2-0.6l1.2-1.8c0.39-2.39,0.39-4.39,0-5.99c-0.4-0.8-0.6-2.79-0.6-5.99c0-4.39-0.21-7.98-0.6-10.78c-0.4-1.2-0.6-3.79-0.6-7.78
	v-8.38c0-4.39-0.21-7.58-0.6-9.58l-1.2-3.59l20.95-0.6l1.92,0.07v60.46c0,2.14,0.51,4.23,1.46,5.94l4.99,9.04
	c0.41,0.74,1.05,1.18,1.72,1.18c0.68,0,1.32-0.44,1.72-1.18l4.99-9.04c0.94-1.71,1.45-3.8,1.46-5.94V491.4
	c9.1,1.2,15.59,2.95,19.46,5.27c4.39,2.39,6.59,6.39,6.59,11.97c0,5.19-1.4,11.18-4.19,17.96c-2,5.99-2.99,10.58-2.99,13.77
	c0,2.79,1.59,4.19,4.79,4.19c2,0,3.39-0.21,4.19-0.6c2.39-1.2,4.39-3.19,5.99-5.99l2.99-5.99c4.79-9.58,7.18-18.16,7.18-25.74
	c0-9.18-3.39-15.96-10.18-20.36c-5.19-3.19-14.17-5.59-26.94-7.18c-3.2,0-5.19-0.2-5.99-0.6l0.6-8.38v-1.2v-0.6
	c4.39-0.39,12.17-0.6,23.35-0.6l12.57-0.6c7.58,0,11.38,0,11.38,0s0-1.4,0-4.19C792.13,461.35,791.53,460.55,790.33,460.15z
	 M729.57,478.8c0-3.09,2.5-5.59,5.59-5.59s5.59,2.5,5.59,5.59v7.03h-11.18V478.8z M729.58,490.84l0.01,0v3.47h11.18v-3.08l0.01,0
	v48.46l-4.31-0.01v0.01h-2.58v-0.01h-4.31V490.84z M740.77,551.19c0,0.31-0.02,0.62-0.05,0.93c-0.11,1.04-0.41,2.03-0.86,2.89
	l-4.69,8.44l4.66-8.43c0.46-0.85,0.75-1.84,0.86-2.88h-10.56v-0.01c-0.16,0-0.32,0.02-0.48,0.07c-0.04-0.33-0.06-0.67-0.06-1v-7.99
	h11.2L740.77,551.19z"/>
<g>
	<path d="M429.92,454.16c-2.39-3.99-5.19-5.99-8.38-5.99c-0.8,0-1.4,0.21-1.8,0.6c-1.2,0.4-1.8,2.2-1.8,5.39v5.99
		c2,7.18,3.99,12.18,5.99,14.97c1.59,1.6,3.19,2.2,4.79,1.8c1.59-0.39,2.39-0.8,2.39-1.2l1.8-3.59c0.8-2.39,1.2-4.39,1.2-5.99
		C434.11,462.15,432.7,458.16,429.92,454.16z"/>
	<path d="M412.55,472.13c2.79-5.18,4.19-9.97,4.19-14.37c0-3.19-0.6-5.99-1.8-8.38c-2-3.99-3.59-6.38-4.79-7.18
		c-2-1.59-4.19-2.59-6.59-2.99l-6.59-1.8l-5.99-0.6h-4.79c-3.2,0-5.79,0.21-7.78,0.6c-1.11,0.28-2.13,0.58-3.05,0.91
		c-3.72-1.61-5.65-5.84-4.31-9.74c0.86-2.53,3.21-4.12,5.74-4.17v0c0,1.25,1.02,2.27,2.27,2.27s2.27-1.02,2.27-2.27
		s-1.02-2.27-2.27-2.27c-0.89,0-1.65,0.52-2.02,1.26c-3.03-0.06-5.9,1.83-6.93,4.85c-1.4,4.08,0.38,8.49,4,10.55
		c-2.03,0.86-3.48,1.87-4.33,3.02c-0.78-1.35-1.9-2.48-3.29-3.27c-2.06-1.17-4.44-1.46-6.72-0.83c-3.43,0.95-5.58,4.24-5.22,7.66
		c-0.81,0.35-1.38,1.15-1.38,2.09c0,1.25,1.02,2.27,2.27,2.27s2.27-1.02,2.27-2.27c0-1.22-0.96-2.21-2.17-2.26
		c-0.27-2.92,1.58-5.72,4.5-6.52c2.02-0.56,4.14-0.3,5.96,0.74c1.41,0.8,2.51,1.99,3.2,3.42c-0.23,0.55-0.35,1.13-0.35,1.74v0.6
		l0.6,12.57c0,2,0.99,5.39,2.99,10.18c2,5.19,5.39,10.18,10.18,14.97c1.59,1.6,3.59,2.39,5.99,2.39l-0.6,4.19
		c-0.4,2.79-0.4,6.19,0,10.18c0.39,2.79,0.6,5.99,0.6,9.58c0,7.18,0.6,14.37,1.8,21.55l-2.39,0.6c0.39-0.39-1.4,0-5.39,1.2v-16.76
		c0-2.79,0.2-5.18,0.6-7.18c0-3.99-0.21-7.18-0.6-9.58c-0.8-4.39-2.6-6.59-5.39-6.59h-1.2c-2,0.8-3.59,2-4.79,3.59
		c-1.2,1.6-1.8,4.19-1.8,7.78l1.8,14.37l1.8,7.18l1.8,9.58h-0.6l-3.59,1.8c-2.39,1.6-3.59,3.8-3.59,6.59c0,1.59,0.2,2.79,0.6,3.59
		c0.39,1.59,1.4,2.79,2.99,3.59c2,1.2,4.39,1.2,7.18,0l6.59-2.39l24.55-9.58l4.79-2.39c1.59-1.2,2.39-2.39,2.39-3.59
		c0-0.8-0.21-1.4-0.6-1.8c-0.4-1.2-1.2-2-2.39-2.39h-4.19h-1.2h-2.99c-2.39,0-3.99,0.21-4.79,0.6c0-6.79,0.2-11.57,0.6-14.37
		c2.39,0,4.19-0.2,5.39-0.6l4.79-1.2c2.39,0,3.59-1.4,3.59-4.19v-0.6c-0.8-2.39-1.4-3.79-1.8-4.19l-2.39-1.2
		c-1.2-1.2-3.59-1.8-7.18-1.8l-1.8-0.6c0.39-2,0.6-6.19,0.6-12.57v-1.2c0-2.39-0.21-3.79-0.6-4.19
		C405.57,480.31,409.36,476.91,412.55,472.13z M372.11,454.76c-1.71-4.29-0.78-9.27,2.49-12.62c3.27-3.35,8.23-4.41,12.55-2.81
		L372.11,454.76z M395.2,479.62c-4.98,0.54-9.01-1.6-12.16-5.36c-3.58-4.27-6.6-9.03-9.93-13.48l8.85-8.85l17.71,17.71l2.95-2.95
		c0,0-17.71-17.71-17.71-17.71c2.34-2.34,4.64-4.7,7.02-6.99c0.55-0.52,2.98,0.62,3.63,0.81c2.85,0.85,5.74,1.67,8.56,2.63
		c2.45,0.84,4.86,2.03,6.57,3.97c2.04,2.32,2.87,5.51,2.83,8.6c-0.08,5.79-2.36,11.95-6.47,16.07
		C403.94,477.17,399.57,479.15,395.2,479.62z"/>
</g>
</svg>
