<?xml version="1.0" encoding="utf-8"?>
<!-- Generator: Adobe Illustrator 23.0.0, SVG Export Plug-In . SVG Version: 6.00 Build 0)  -->
<svg version="1.1" id="图层_1" xmlns="http://www.w3.org/2000/svg" xmlns:xlink="http://www.w3.org/1999/xlink" x="0px" y="0px"
	 viewBox="0 0 1024 1024" style="enable-background:new 0 0 1024 1024;" xml:space="preserve">
<circle cx="512" cy="512" r="222.82"/>
<path d="M512.1,202.88c-22.09,0-40-17.91-40-40v-56.01c0-22.09,17.91-40,40-40c22.09,0,40,17.91,40,40v56.01
	C552.1,184.98,534.19,202.88,512.1,202.88z"/>
<path d="M337.56,249.61c-13.82,0-27.27-7.17-34.68-20.01l-28.01-48.51c-11.05-19.13-4.49-43.6,14.64-54.64
	c19.13-11.05,43.6-4.49,54.64,14.64l28.01,48.51c11.05,19.13,4.49,43.6-14.64,54.64C351.23,247.88,344.35,249.61,337.56,249.61z"/>
<path d="M209.67,377.36c-6.79,0-13.66-1.73-19.96-5.37l-48.51-28.01c-19.13-11.05-25.69-35.51-14.64-54.64
	c11.05-19.13,35.51-25.69,54.64-14.64l48.51,28.01c19.13,11.05,25.69,35.51,14.64,54.64C236.94,370.19,223.49,377.36,209.67,377.36z
	"/>
<path d="M162.88,551.9h-56.01c-22.09,0-40-17.91-40-40c0-22.09,17.91-40,40-40h56.01c22.09,0,40,17.91,40,40
	C202.88,533.99,184.98,551.9,162.88,551.9z"/>
<path d="M161.14,754.48c-13.83,0-27.27-7.17-34.68-20.01c-11.05-19.13-4.49-43.6,14.64-54.64l48.51-28.01
	c19.13-11.05,43.6-4.49,54.64,14.64s4.49,43.6-14.64,54.64l-48.51,28.01C174.8,752.75,167.92,754.48,161.14,754.48z"/>
<path d="M309.31,902.81c-6.79,0-13.66-1.73-19.96-5.37c-19.13-11.05-25.69-35.51-14.64-54.64l28.01-48.51
	c11.05-19.13,35.51-25.69,54.64-14.64c19.13,11.05,25.69,35.51,14.64,54.64l-28.01,48.51C336.58,895.63,323.14,902.81,309.31,902.81
	z"/>
<path d="M511.9,957.13c-22.09,0-40-17.91-40-40v-56.01c0-22.09,17.91-40,40-40c22.09,0,40,17.91,40,40v56.01
	C551.9,939.22,533.99,957.13,511.9,957.13z"/>
<path d="M714.51,902.91c-13.82,0-27.27-7.17-34.68-20.01l-28.01-48.51c-11.05-19.13-4.49-43.59,14.64-54.64
	c19.13-11.05,43.59-4.49,54.64,14.64l28.01,48.51c11.05,19.13,4.49,43.59-14.64,54.64C728.18,901.18,721.3,902.91,714.51,902.91z"/>
<path d="M862.76,754.66c-6.79,0-13.66-1.73-19.96-5.37l-48.51-28.01c-19.13-11.05-25.69-35.51-14.64-54.64
	c11.04-19.13,35.51-25.69,54.64-14.64l48.51,28.01c19.13,11.05,25.69,35.51,14.64,54.64C890.03,747.48,876.59,754.66,862.76,754.66z
	"/>
<path d="M917.13,552.1h-56.01c-22.09,0-40-17.91-40-40c0-22.09,17.91-40,40-40h56.01c22.09,0,40,17.91,40,40
	C957.13,534.19,939.22,552.1,917.13,552.1z"/>
<path d="M814.43,377.53c-13.82,0-27.27-7.17-34.68-20.01c-11.05-19.13-4.49-43.6,14.64-54.64l48.51-28.01
	c19.13-11.05,43.59-4.49,54.64,14.64s4.49,43.6-14.64,54.64l-48.51,28.01C828.09,375.81,821.22,377.53,814.43,377.53z"/>
<path d="M686.61,249.71c-6.79,0-13.66-1.73-19.96-5.37c-19.13-11.05-25.69-35.51-14.64-54.64l28.01-48.51
	c11.04-19.13,35.51-25.69,54.64-14.64s25.69,35.51,14.64,54.64l-28.01,48.51C713.88,242.54,700.43,249.71,686.61,249.71z"/>
</svg>
