<?xml version="1.0" encoding="utf-8"?>
<!-- Generator: Adobe Illustrator 23.0.0, SVG Export Plug-In . SVG Version: 6.00 Build 0)  -->
<svg version="1.1" id="图层_1" xmlns="http://www.w3.org/2000/svg" xmlns:xlink="http://www.w3.org/1999/xlink" x="0px" y="0px"
	 viewBox="0 0 1024 1024" style="enable-background:new 0 0 1024 1024;" xml:space="preserve">
<g>
	<path d="M285.16,356.28h279.27c12.14,0,21.98-9.84,21.98-21.98c0-12.14-9.84-21.98-21.98-21.98H285.16
		c-12.14,0-21.98,9.84-21.98,21.98C263.19,346.44,273.02,356.28,285.16,356.28z"/>
	<path d="M565.69,382.77H286.43c-12.14,0-21.98,9.84-21.98,21.98s9.84,21.98,21.98,21.98h279.27c12.14,0,21.98-9.84,21.98-21.98
		S577.83,382.77,565.69,382.77z"/>
	<path d="M586.41,475.19c0-12.14-9.84-21.98-21.98-21.98H285.16c-12.14,0-21.98,9.84-21.98,21.98s9.84,21.98,21.98,21.98h279.27
		C576.57,497.17,586.41,487.33,586.41,475.19z"/>
	<path d="M825.07,377.09h-92.01v-44.69c0-86.71-70.3-157.01-157.01-157.01h-290.7c-86.72,0-157.01,70.3-157.01,157.01v142.2
		c0,71.24,47.72,131.54,112.87,150.62c0.05,0.01,0.08,0.06,0.08,0.1v130.35c0,16.91,9.24,32.74,24.4,40.23
		c6.28,3.11,12.96,4.59,19.55,4.59c12.87,0,25.39-5.66,33.91-15.98L431.3,648.62l-7.27,8.8c11.49,50.15,56.61,87.86,110.12,87.86
		v97.48c0,24.1,30.18,34.94,45.52,16.36l93.96-113.84h151.44c62.12,0,112.95-50.83,112.95-112.95V490.04
		C938.02,427.91,887.19,377.09,825.07,377.09z M733.06,439.91h123.95c8.72,0,15.79,8.78,15.79,19.61c0,10.83-7.07,19.61-15.79,19.61
		H732.99c-0.01,0.27-0.03,0.53-0.03,0.8c0.06-1.81,0.1-3.63,0.1-5.46V439.91z M732.82,483.14c-0.03,0.53-0.07,1.06-0.1,1.58
		C732.76,484.2,732.79,483.67,732.82,483.14z M732.54,487.29c-0.05,0.61-0.11,1.22-0.16,1.82
		C732.44,488.5,732.49,487.9,732.54,487.29z M732.15,491.42c-0.07,0.64-0.14,1.28-0.22,1.91
		C732.01,492.7,732.08,492.06,732.15,491.42z M731.65,495.56c-0.09,0.64-0.17,1.27-0.27,1.9
		C731.48,496.83,731.57,496.2,731.65,495.56z M731.04,499.72c-0.1,0.6-0.2,1.21-0.3,1.81C730.84,500.92,730.94,500.32,731.04,499.72
		z M730.3,503.93c-0.1,0.54-0.2,1.08-0.31,1.61C730.09,505,730.19,504.46,730.3,503.93z M729.4,508.32
		c-0.09,0.39-0.17,0.79-0.26,1.18C729.23,509.11,729.31,508.71,729.4,508.32z M390.83,559.56l-46.22,55.99
		c-5.19,6.29-15.41,2.62-15.41-5.54v-22.47c0-24.29-19.7-43.97-43.99-43.96c-37.93,0.03-68.96-32.18-68.96-70.11V332.39
		c0-38.16,30.94-69.1,69.1-69.1h290.7c38.16,0,69.1,30.94,69.1,69.1v142.09c0,38.16-30.94,69.1-69.1,69.1H424.73
		C411.61,543.58,399.18,549.44,390.83,559.56z M630.96,621.62c-0.06,0.02-0.12,0.04-0.17,0.07
		C630.84,621.66,630.9,621.64,630.96,621.62z M627.63,622.81c-0.21,0.07-0.42,0.15-0.63,0.22
		C627.22,622.96,627.42,622.89,627.63,622.81z M624.3,623.93c-0.37,0.12-0.73,0.24-1.1,0.36
		C623.57,624.17,623.93,624.05,624.3,623.93z M620.94,624.97c-0.52,0.16-1.04,0.31-1.56,0.46
		C619.9,625.29,620.42,625.13,620.94,624.97z M617.57,625.94c-0.68,0.19-1.36,0.38-2.05,0.55
		C616.2,626.31,616.88,626.12,617.57,625.94z M614.19,626.82c-0.85,0.21-1.7,0.42-2.55,0.62
		C612.5,627.24,613.34,627.03,614.19,626.82z M610.8,627.63c-1.02,0.23-2.04,0.46-3.06,0.67
		C608.77,628.08,609.79,627.86,610.8,627.63z M607.4,628.36c-10.1,2.05-20.55,3.13-31.24,3.13h-0.11
		C586.79,631.49,597.27,630.41,607.4,628.36z M857.01,689.19H514.6c-8.72,0-15.79-8.78-15.79-19.61c0-10.83,7.07-19.61,15.79-19.61
		h342.41c8.72,0,15.79,8.78,15.79,19.61C872.8,680.41,865.73,689.19,857.01,689.19z M858.56,584.16H688.39
		c11.23-11.5,20.71-24.72,28.01-39.23h142.16c8.72,0,15.79,8.78,15.79,19.61S867.28,584.16,858.56,584.16z"/>
</g>
</svg>
