<?xml version="1.0" standalone="no"?><!DOCTYPE svg PUBLIC "-//W3C//DTD SVG 1.1//EN" "http://www.w3.org/Graphics/SVG/1.1/DTD/svg11.dtd"><svg t="1563613135068" class="icon" viewBox="0 0 1024 1024" version="1.1" xmlns="http://www.w3.org/2000/svg" p-id="1886" xmlns:xlink="http://www.w3.org/1999/xlink" width="200" height="200"><defs><style type="text/css"></style></defs><path d="M878.843 402.739a378.438 378.438 0 0 0-16.431-44.371l-41.364-4.354-50.175-91.624 13.089 87.261-229.059-17.452-34.904-52.356-29.332 52.356L265 349.65v-74.171l-43.75 78.534-57.763 4.274c-6.371 14.376-11.919 29.21-16.497 44.451-10.496 34.944-83.665 10.176-83.665 97.263s70.601 70.898 76.827 98.302C178.727 768.09 330 894.993 511 896.079v0.026c1 0 1.609-0.012 2-0.013 0.391 0.001 0 0.013 2 0.013v-0.026c181-1.086 332.119-127.989 370.693-297.776 6.226-27.404 77.027-11.216 77.027-98.302s-73.381-62.319-83.877-97.262zM319.3 593.98c-34.94 0-63.264-28.324-63.264-63.264s28.324-63.264 63.264-63.264 63.264 28.324 63.264 63.264-28.325 63.264-63.264 63.264z m399.217 0c-34.94 0-63.264-28.324-63.264-63.264s28.324-63.264 63.264-63.264 63.264 28.324 63.264 63.264-28.325 63.264-63.264 63.264z" fill="#F9CBBD" p-id="1887"></path><path d="M265 275.479v74.171l225.668-17.452 29.391-52.356 34.874 52.356 229.044 17.452-13.097-87.26 50.171 91.624 41.363 4.354 0.083 0.009S829.774 125.5 512.958 125.5 162.231 358.377 162.231 358.377l1.197-0.089 57.822-4.274L265 275.479z" fill="#232C35" p-id="1888"></path><path d="M319.3 530.716m-63.264 0a63.264 63.264 0 1 0 126.528 0 63.264 63.264 0 1 0-126.528 0Z" fill="#232C35" p-id="1889"></path><path d="M718.517 530.716m-63.264 0a63.264 63.264 0 1 0 126.528 0 63.264 63.264 0 1 0-126.528 0Z" fill="#232C35" p-id="1890"></path></svg>