<?xml version="1.0" encoding="utf-8"?>
<!-- Generator: Adobe Illustrator 23.0.0, SVG Export Plug-In . SVG Version: 6.00 Build 0)  -->
<svg version="1.1" id="图层_1" xmlns="http://www.w3.org/2000/svg" xmlns:xlink="http://www.w3.org/1999/xlink" x="0px" y="0px"
	 viewBox="0 0 1024 1024" style="enable-background:new 0 0 1024 1024;" xml:space="preserve">
<path d="M512,65.14C265.21,65.14,65.14,265.21,65.14,512S265.21,958.86,512,958.86S958.86,758.79,958.86,512S758.79,65.14,512,65.14
	z M511.45,866.02c-24.07,0-43.59-19.51-43.59-43.59c0-24.07,19.51-43.59,43.59-43.59c24.07,0,43.59,19.51,43.59,43.59
	C555.04,846.51,535.52,866.02,511.45,866.02z M555.36,558.97V679c0,24.25-19.66,43.91-43.91,43.91c-24.25,0-43.91-19.66-43.91-43.91
	V519.74c0-24.25,19.66-43.91,43.91-43.91c0.09,0,0.18,0.01,0.27,0.01c0.09,0,0.18-0.01,0.27-0.01c63.42,0,115.02-51.6,115.02-115.02
	S575.42,245.79,512,245.79c-63.42,0-115.02,51.6-115.02,115.02c0,24.25-19.66,43.91-43.91,43.91s-43.91-19.66-43.91-43.91
	c0-111.84,90.99-202.84,202.84-202.84s202.84,90.99,202.84,202.84C714.84,457.78,646.44,539.06,555.36,558.97z"/>
</svg>
