<?xml version="1.0" encoding="utf-8"?>
<!-- Generator: Adobe Illustrator 23.0.0, SVG Export Plug-In . SVG Version: 6.00 Build 0)  -->
<svg version="1.1" id="图层_1" xmlns="http://www.w3.org/2000/svg" xmlns:xlink="http://www.w3.org/1999/xlink" x="0px" y="0px"
	 viewBox="0 0 1024 1024" style="enable-background:new 0 0 1024 1024;" xml:space="preserve">
<path d="M915.81,329.43C855.75,177.94,709.31,78.47,546.36,78.48C408.48,78.63,280.51,150.19,208.2,267.6
	c-72.3,117.41-78.62,263.89-16.68,387.08c23.38,46.05-21.98,143.06,16.59,176.72c7.48,6.54,20.8,8.65,36.7,8.65
	c32.02,0,75.5-8.65,105.89-8.65c10.99,0,20.33,1.17,26.88,4.21c147.52,69.22,322.35,41.36,441.05-70.27
	C937.34,653.7,975.86,480.91,915.81,329.43z M648.39,285.64c25.82,0,46.75,20.93,46.75,46.75c0,25.82-20.93,46.75-46.75,46.75
	c-25.82,0-46.75-20.93-46.75-46.75C601.64,306.58,622.57,285.64,648.39,285.64z M374.61,285.65h140.25
	c25.77,0.12,46.62,20.98,46.75,46.75c-0.13,25.77-20.99,46.62-46.75,46.75H374.61c-25.77-0.13-46.62-20.99-46.75-46.75
	C327.99,306.63,348.85,285.77,374.61,285.65z M631.74,666.09H491.49c-25.77-0.13-46.62-20.99-46.75-46.75
	c0.13-25.77,20.99-46.62,46.75-46.75h140.25c25.77,0.12,46.62,20.98,46.75,46.75C678.36,645.11,657.51,665.96,631.74,666.09z
	 M718.33,522.62l-343.72,0c-25.77-0.13-46.62-20.99-46.75-46.75c0.13-25.77,20.99-46.62,46.75-46.75l343.72,0
	c25.77,0.12,46.62,20.98,46.75,46.75C764.95,501.63,744.1,522.49,718.33,522.62z"/>
</svg>
