<?xml version="1.0" encoding="utf-8"?>
<!-- Generator: Adobe Illustrator 23.0.0, SVG Export Plug-In . SVG Version: 6.00 Build 0)  -->
<svg version="1.1" id="图层_1" xmlns="http://www.w3.org/2000/svg" xmlns:xlink="http://www.w3.org/1999/xlink" x="0px" y="0px"
	 viewBox="0 0 1024 1024" style="enable-background:new 0 0 1024 1024;" xml:space="preserve">
<g>
	<circle cx="201.72" cy="510.96" r="50.21"/>
	<path d="M391.04,803.06c-10.24,0-20.47-3.91-28.28-11.72c-15.62-15.62-15.62-40.95,0-56.57c59.78-59.78,92.71-139.27,92.71-223.81
		c0-84.54-32.92-164.03-92.71-223.81c-15.62-15.62-15.62-40.95,0-56.57s40.95-15.62,56.57,0c36.4,36.4,64.99,78.8,84.96,126.02
		c20.69,48.91,31.18,100.84,31.18,154.35s-10.49,105.44-31.18,154.35c-19.97,47.22-48.56,89.62-84.96,126.02
		C411.52,799.15,401.28,803.06,391.04,803.06z"/>
	<path d="M602.16,949.94c-10.24,0-20.47-3.91-28.28-11.72c-15.62-15.62-15.62-40.95,0-56.57
		c99.01-99.01,153.54-230.66,153.54-370.69c0-140.03-54.53-271.67-153.54-370.69c-15.62-15.62-15.62-40.95,0-56.57
		c15.62-15.62,40.95-15.62,56.57,0c55.48,55.48,99.04,120.09,129.48,192.05c31.52,74.52,47.5,153.65,47.5,235.21
		c0,81.55-15.98,160.69-47.5,235.21c-30.43,71.96-74,136.57-129.48,192.05C622.63,946.03,612.39,949.94,602.16,949.94z"/>
</g>
</svg>
