<?xml version="1.0" encoding="utf-8"?>
<!-- Generator: Adobe Illustrator 23.0.0, SVG Export Plug-In . SVG Version: 6.00 Build 0)  -->
<svg version="1.1" id="图层_1" xmlns="http://www.w3.org/2000/svg" xmlns:xlink="http://www.w3.org/1999/xlink" x="0px" y="0px"
	 viewBox="0 0 1024 1024" style="enable-background:new 0 0 1024 1024;" xml:space="preserve">
<path d="M827.88,99.47H194.8c-54.13,0-98.16,44.03-98.16,98.16V830.7c0,54.13,44.03,98.16,98.16,98.16h633.07
	c54.13,0,98.16-44.03,98.16-98.16V197.63C926.04,143.51,882,99.47,827.88,99.47z M770.22,713.65c15.62,15.62,15.62,40.95,0,56.57
	c-7.81,7.81-18.05,11.72-28.28,11.72s-20.47-3.91-28.28-11.72L512,568.57L310.35,770.22c-7.81,7.81-18.05,11.72-28.28,11.72
	s-20.47-3.91-28.28-11.72c-15.62-15.62-15.62-40.95,0-56.57L455.43,512L253.78,310.35c-15.62-15.62-15.62-40.95,0-56.57
	c15.62-15.62,40.95-15.62,56.57,0L512,455.43l201.65-201.65c15.62-15.62,40.95-15.62,56.57,0c15.62,15.62,15.62,40.95,0,56.57
	L568.57,512L770.22,713.65z"/>
</svg>
