<?xml version="1.0" encoding="utf-8"?>
<!-- Generator: Adobe Illustrator 23.0.0, SVG Export Plug-In . SVG Version: 6.00 Build 0)  -->
<svg version="1.1" id="图层_1" xmlns="http://www.w3.org/2000/svg" xmlns:xlink="http://www.w3.org/1999/xlink" x="0px" y="0px"
	 viewBox="0 0 1024 1024" style="enable-background:new 0 0 1024 1024;" xml:space="preserve">
<path d="M330.77,397.04h40.51c6.5,0,11.77-5.27,11.77-11.77v-40.51c0-6.5-5.27-11.77-11.77-11.77h-40.51
	c-6.5,0-11.77,5.27-11.77,11.77v40.51C319,391.77,324.27,397.04,330.77,397.04z"/>
<path d="M254.99,474.13v38.31c0,7.07,5.73,12.8,12.8,12.8h37.68c7.07,0,12.8-5.73,12.8-12.8v-38.31c0-7.07-5.73-12.8-12.8-12.8
	h-37.68C260.72,461.32,254.99,467.05,254.99,474.13z"/>
<path d="M394.1,525.24h41.83c6.12,0,11.09-4.96,11.09-11.09v-41.74c0-6.12-4.96-11.09-11.09-11.09H394.1
	c-6.12,0-11.09,4.96-11.09,11.09v41.74C383.01,520.28,387.98,525.24,394.1,525.24z"/>
<path d="M268.42,653.08h37.15c7.43,0,13.45-6.02,13.45-13.45v-37.01c0-7.43-6.02-13.45-13.45-13.45h-37.15
	c-7.43,0-13.45,6.02-13.45,13.45v37.01C254.97,647.06,260.99,653.08,268.42,653.08z"/>
<path d="M396.45,653.08h37.15c7.43,0,13.45-6.02,13.45-13.45v-37.01c0-7.43-6.02-13.45-13.45-13.45h-37.15
	c-7.43,0-13.45,6.02-13.45,13.45v37.01C383,647.06,389.02,653.08,396.45,653.08z"/>
<path d="M652.49,653.08h37.15c7.43,0,13.45-6.02,13.45-13.45v-37.01c0-7.43-6.02-13.45-13.45-13.45h-37.15
	c-7.43,0-13.45,6.02-13.45,13.45v37.01C639.04,647.06,645.06,653.08,652.49,653.08z"/>
<path d="M852.88,362.32c-12.55-7.18-27.99-7.02-40.4,0.4L550.95,519.2l0.98-378.12c0.04-14.42-7.69-27.74-20.22-34.87
	c-12.54-7.13-27.94-6.96-40.31,0.44L170.44,298.66c-12.07,7.22-19.46,20.26-19.46,34.33v447.93h80V355.67l240.78-144.04
	l-1.48,569.18l80,0.21l0.44-168.45L792.5,467.9l-2.32,312.24l80,0.59l2.85-383.4C873.13,382.88,865.43,369.49,852.88,362.32z"/>
</svg>
