<?xml version="1.0" encoding="utf-8"?>
<!-- Generator: Adobe Illustrator 23.0.0, SVG Export Plug-In . SVG Version: 6.00 Build 0)  -->
<svg version="1.1" id="图层_1" xmlns="http://www.w3.org/2000/svg" xmlns:xlink="http://www.w3.org/1999/xlink" x="0px" y="0px"
	 viewBox="0 0 1024 1024" style="enable-background:new 0 0 1024 1024;" xml:space="preserve">
<g>
	<path d="M512,64.7C264.9,64.7,64.7,264.9,64.7,512S264.9,959.3,512,959.3S959.3,759.1,959.3,512S759.1,64.7,512,64.7z M745.7,802.9
		c-13.5,0-24.5-11-24.5-24.5c0-115.4-93.9-209.3-209.3-209.3s-209.3,93.9-209.3,209.3c0,13.5-11,24.5-24.5,24.5
		c-13.5,0-24.5-11-24.5-24.5c0-34.8,6.8-68.7,20.3-100.5c13-30.7,31.6-58.4,55.3-82.1c23.7-23.7,51.3-42.3,82.1-55.3
		c1.3-0.5,2.6-1.1,3.9-1.6c-9.3-6.3-18.1-13.4-26.2-21.6c-32.8-32.8-50.8-76.4-50.8-122.7s18-90,50.8-122.7s76.4-50.8,122.7-50.8
		c46.4,0,89.9,18.1,122.7,50.8c32.8,32.8,50.8,76.4,50.8,122.7c0,46.4-18.1,89.9-50.8,122.7c-8.1,8.1-16.9,15.3-26.2,21.6
		c1.3,0.5,2.6,1.1,3.9,1.6c30.7,13,58.4,31.6,82.1,55.3c23.7,23.7,42.3,51.3,55.3,82.1c13.5,31.9,20.3,65.7,20.3,100.5
		C770.2,792,759.2,802.9,745.7,802.9z"/>
	<circle cx="512" cy="394.7" r="124.7"/>
</g>
</svg>
